<svg xmlns="http://www.w3.org/2000/svg" display="none">
    <symbol id="instagram" viewBox="0 0 512 512">
        <path stroke="#030c1b"
              d="m305 256c0 27.0625-21.9375 49-49 49s-49-21.9375-49-49 21.9375-49 49-49 49 21.9375 49 49zm0 0"/>
        <path stroke="#030c1b"
              d="m370.59375 169.304688c-2.355469-6.382813-6.113281-12.160157-10.996094-16.902344-4.742187-4.882813-10.515625-8.640625-16.902344-10.996094-5.179687-2.011719-12.960937-4.40625-27.292968-5.058594-15.503906-.707031-20.152344-.859375-59.402344-.859375-39.253906 0-43.902344.148438-59.402344.855469-14.332031.65625-22.117187 3.050781-27.292968 5.0625-6.386719 2.355469-12.164063 6.113281-16.902344 10.996094-4.882813 4.742187-8.640625 10.515625-11 16.902344-2.011719 5.179687-4.40625 12.964843-5.058594 27.296874-.707031 15.5-.859375 20.148438-.859375 59.402344 0 39.25.152344 43.898438.859375 59.402344.652344 14.332031 3.046875 22.113281 5.058594 27.292969 2.359375 6.386719 6.113281 12.160156 10.996094 16.902343 4.742187 4.882813 10.515624 8.640626 16.902343 10.996094 5.179688 2.015625 12.964844 4.410156 27.296875 5.0625 15.5.707032 20.144532.855469 59.398438.855469 39.257812 0 43.90625-.148437 59.402344-.855469 14.332031-.652344 22.117187-3.046875 27.296874-5.0625 12.820313-4.945312 22.953126-15.078125 27.898438-27.898437 2.011719-5.179688 4.40625-12.960938 5.0625-27.292969.707031-15.503906.855469-20.152344.855469-59.402344 0-39.253906-.148438-43.902344-.855469-59.402344-.652344-14.332031-3.046875-22.117187-5.0625-27.296874zm-114.59375 162.179687c-41.691406 0-75.488281-33.792969-75.488281-75.484375s33.796875-75.484375 75.488281-75.484375c41.6875 0 75.484375 33.792969 75.484375 75.484375s-33.796875 75.484375-75.484375 75.484375zm78.46875-136.3125c-9.742188 0-17.640625-7.898437-17.640625-17.640625s7.898437-17.640625 17.640625-17.640625 17.640625 7.898437 17.640625 17.640625c-.003906 9.742188-7.898437 17.640625-17.640625 17.640625zm0 0"/>
        <path stroke="#030c1b"
              d="m256 0c-141.363281 0-256 114.636719-256 256s114.636719 256 256 256 256-114.636719 256-256-114.636719-256-256-256zm146.113281 316.605469c-.710937 15.648437-3.199219 26.332031-6.832031 35.683593-7.636719 19.746094-23.246094 35.355469-42.992188 42.992188-9.347656 3.632812-20.035156 6.117188-35.679687 6.832031-15.675781.714844-20.683594.886719-60.605469.886719-39.925781 0-44.929687-.171875-60.609375-.886719-15.644531-.714843-26.332031-3.199219-35.679687-6.832031-9.8125-3.691406-18.695313-9.476562-26.039063-16.957031-7.476562-7.339844-13.261719-16.226563-16.953125-26.035157-3.632812-9.347656-6.121094-20.035156-6.832031-35.679687-.722656-15.679687-.890625-20.6875-.890625-60.609375s.167969-44.929688.886719-60.605469c.710937-15.648437 3.195312-26.332031 6.828125-35.683593 3.691406-9.808594 9.480468-18.695313 16.960937-26.035157 7.339844-7.480469 16.226563-13.265625 26.035157-16.957031 9.351562-3.632812 20.035156-6.117188 35.683593-6.832031 15.675781-.714844 20.683594-.886719 60.605469-.886719s44.929688.171875 60.605469.890625c15.648437.710937 26.332031 3.195313 35.683593 6.824219 9.808594 3.691406 18.695313 9.480468 26.039063 16.960937 7.476563 7.34375 13.265625 16.226563 16.953125 26.035157 3.636719 9.351562 6.121094 20.035156 6.835938 35.683593.714843 15.675781.882812 20.683594.882812 60.605469s-.167969 44.929688-.886719 60.605469zm0 0"/>
    </symbol>

    <symbol id="instagram2" viewBox="0 0 512 512">
        <g>
            <path d="M256,152c-57.9,0-105,47.1-105,105s47.1,105,105,105s105-47.1,105-105S313.9,152,256,152z M256,152   c-57.9,0-105,47.1-105,105s47.1,105,105,105s105-47.1,105-105S313.9,152,256,152z M437,0H75C33.6,0,0,33.6,0,75v362   c0,41.4,33.6,75,75,75h362c41.4,0,75-33.6,75-75V75C512,33.6,478.4,0,437,0z M256,392c-74.399,0-135-60.601-135-135   c0-74.401,60.601-135,135-135s135,60.599,135,135C391,331.399,330.399,392,256,392z M421,122c-16.5,0-30-13.5-30-30s13.5-30,30-30   s30,13.5,30,30S437.5,122,421,122z M256,152c-57.9,0-105,47.1-105,105s47.1,105,105,105s105-47.1,105-105S313.9,152,256,152z    M256,152c-57.9,0-105,47.1-105,105s47.1,105,105,105s105-47.1,105-105S313.9,152,256,152z M256,152c-57.9,0-105,47.1-105,105   s47.1,105,105,105s105-47.1,105-105S313.9,152,256,152z"/>
        </g>
    </symbol>

    <symbol id="facebook" viewBox="0 0 167.657 167.657">
        <g>
            <path stroke="#030c1b" d="M83.829,0.349C37.532,0.349,0,37.881,0,84.178c0,41.523,30.222,75.911,69.848,82.57v-65.081H49.626
		v-23.42h20.222V60.978c0-20.037,12.238-30.956,30.115-30.956c8.562,0,15.92,0.638,18.056,0.919v20.944l-12.399,0.006
		c-9.72,0-11.594,4.618-11.594,11.397v14.947h23.193l-3.025,23.42H94.026v65.653c41.476-5.048,73.631-40.312,73.631-83.154
		C167.657,37.881,130.125,0.349,83.829,0.349z"/>
        </g>
    </symbol>


    <symbol id="facebook2" viewBox="0 0 512 512">
        <path d="m437 0h-362c-41.351562 0-75 33.648438-75 75v362c0 41.351562 33.648438 75 75 75h151v-181h-60v-90h60v-61c0-49.628906 40.371094-90 90-90h91v90h-91v61h91l-15 90h-76v181h121c41.351562 0 75-33.648438 75-75v-362c0-41.351562-33.648438-75-75-75zm0 0"/>
    </symbol>

    <symbol id="linkedin" viewBox="0 0 512 512">
        <path d="m475.074219 0h-438.148438c-20.394531 0-36.925781 16.53125-36.925781 36.925781v438.148438c0 20.394531 16.53125 36.925781 36.925781 36.925781h438.148438c20.394531 0 36.925781-16.53125 36.925781-36.925781v-438.148438c0-20.394531-16.53125-36.925781-36.925781-36.925781zm-293.464844 387h-62.347656v-187.574219h62.347656zm-31.171875-213.1875h-.40625c-20.921875 0-34.453125-14.402344-34.453125-32.402344 0-18.40625 13.945313-32.410156 35.273437-32.410156 21.328126 0 34.453126 14.003906 34.859376 32.410156 0 18-13.53125 32.402344-35.273438 32.402344zm255.984375 213.1875h-62.339844v-100.347656c0-25.21875-9.027343-42.417969-31.585937-42.417969-17.222656 0-27.480469 11.601563-31.988282 22.800781-1.648437 4.007813-2.050781 9.609375-2.050781 15.214844v104.75h-62.34375s.816407-169.976562 0-187.574219h62.34375v26.558594c8.285157-12.78125 23.109375-30.960937 56.1875-30.960937 41.019531 0 71.777344 26.808593 71.777344 84.421874zm0 0"/>
    </symbol>

    <symbol id="telegram" viewBox="0 0 24 24">
        <circle cx="12" cy="12" fill="#e4e6ee" r="12"/>
        <path d="m5.491 11.74 11.57-4.461c.537-.194 1.006.131.832.943l.001-.001-1.97 9.281c-.146.658-.537.818-1.084.508l-3-2.211-1.447 1.394c-.16.16-.295.295-.605.295l.213-3.053 5.56-5.023c.242-.213-.054-.333-.373-.121l-6.871 4.326-2.962-.924c-.643-.204-.657-.643.136-.953z"/>
    </symbol>

    <symbol id="twitter" viewBox="0 0 512 512">
        <g>
            <g>
                <path d="M512,97.248c-19.04,8.352-39.328,13.888-60.48,16.576c21.76-12.992,38.368-33.408,46.176-58.016
			c-20.288,12.096-42.688,20.64-66.56,25.408C411.872,60.704,384.416,48,354.464,48c-58.112,0-104.896,47.168-104.896,104.992
			c0,8.32,0.704,16.32,2.432,23.936c-87.264-4.256-164.48-46.08-216.352-109.792c-9.056,15.712-14.368,33.696-14.368,53.056
			c0,36.352,18.72,68.576,46.624,87.232c-16.864-0.32-33.408-5.216-47.424-12.928c0,0.32,0,0.736,0,1.152
			c0,51.008,36.384,93.376,84.096,103.136c-8.544,2.336-17.856,3.456-27.52,3.456c-6.72,0-13.504-0.384-19.872-1.792
			c13.6,41.568,52.192,72.128,98.08,73.12c-35.712,27.936-81.056,44.768-130.144,44.768c-8.608,0-16.864-0.384-25.12-1.44
			C46.496,446.88,101.6,464,161.024,464c193.152,0,298.752-160,298.752-298.688c0-4.64-0.16-9.12-0.384-13.568
			C480.224,136.96,497.728,118.496,512,97.248z"/>
            </g>
        </g>

    </symbol>

    <symbol id="user" viewBox="-42 0 512 512.002">
        <path d="m210.351562 246.632812c33.882813 0 63.222657-12.152343 87.195313-36.128906 23.972656-23.972656 36.125-53.304687 36.125-87.191406 0-33.875-12.152344-63.210938-36.128906-87.191406-23.976563-23.96875-53.3125-36.121094-87.191407-36.121094-33.886718 0-63.21875 12.152344-87.191406 36.125s-36.128906 53.308594-36.128906 87.1875c0 33.886719 12.15625 63.222656 36.132812 87.195312 23.976563 23.96875 53.3125 36.125 87.1875 36.125zm0 0"/>
        <path d="m426.128906 393.703125c-.691406-9.976563-2.089844-20.859375-4.148437-32.351563-2.078125-11.578124-4.753907-22.523437-7.957031-32.527343-3.308594-10.339844-7.808594-20.550781-13.371094-30.335938-5.773438-10.15625-12.554688-19-20.164063-26.277343-7.957031-7.613282-17.699219-13.734376-28.964843-18.199219-11.226563-4.441407-23.667969-6.691407-36.976563-6.691407-5.226563 0-10.28125 2.144532-20.042969 8.5-6.007812 3.917969-13.035156 8.449219-20.878906 13.460938-6.707031 4.273438-15.792969 8.277344-27.015625 11.902344-10.949219 3.542968-22.066406 5.339844-33.039063 5.339844-10.972656 0-22.085937-1.796876-33.046874-5.339844-11.210938-3.621094-20.296876-7.625-26.996094-11.898438-7.769532-4.964844-14.800782-9.496094-20.898438-13.46875-9.75-6.355468-14.808594-8.5-20.035156-8.5-13.3125 0-25.75 2.253906-36.972656 6.699219-11.257813 4.457031-21.003906 10.578125-28.96875 18.199219-7.605469 7.28125-14.390625 16.121094-20.15625 26.273437-5.558594 9.785157-10.058594 19.992188-13.371094 30.339844-3.199219 10.003906-5.875 20.945313-7.953125 32.523437-2.058594 11.476563-3.457031 22.363282-4.148437 32.363282-.679688 9.796875-1.023438 19.964844-1.023438 30.234375 0 26.726562 8.496094 48.363281 25.25 64.320312 16.546875 15.746094 38.441406 23.734375 65.066406 23.734375h246.53125c26.625 0 48.511719-7.984375 65.0625-23.734375 16.757813-15.945312 25.253906-37.585937 25.253906-64.324219-.003906-10.316406-.351562-20.492187-1.035156-30.242187zm0 0"/>
    </symbol>

    <symbol id="youtube" viewBox="-21 -117 682.66672 682">
        <path d="m626.8125 64.035156c-7.375-27.417968-28.992188-49.03125-56.40625-56.414062-50.082031-13.703125-250.414062-13.703125-250.414062-13.703125s-200.324219 0-250.40625 13.183593c-26.886719 7.375-49.03125 29.519532-56.40625 56.933594-13.179688 50.078125-13.179688 153.933594-13.179688 153.933594s0 104.378906 13.179688 153.933594c7.382812 27.414062 28.992187 49.027344 56.410156 56.410156 50.605468 13.707031 250.410156 13.707031 250.410156 13.707031s200.324219 0 250.40625-13.183593c27.417969-7.378907 49.03125-28.992188 56.414062-56.40625 13.175782-50.082032 13.175782-153.933594 13.175782-153.933594s.527344-104.382813-13.183594-154.460938zm-370.601562 249.878906v-191.890624l166.585937 95.945312zm0 0"/>
    </symbol>

    <symbol id="star" viewBox="0 0 24 24">
        <path d="m23.363 8.584-7.378-1.127-3.307-7.044c-.247-.526-1.11-.526-1.357 0l-3.306 7.044-7.378 1.127c-.606.093-.848.83-.423 1.265l5.36 5.494-1.267 7.767c-.101.617.558 1.08 1.103.777l6.59-3.642 6.59 3.643c.54.3 1.205-.154 1.103-.777l-1.267-7.767 5.36-5.494c.425-.436.182-1.173-.423-1.266z"/>
    </symbol>

    <symbol id="arrow-left" viewBox="0 0 443.52 443.52">
        <g>
            <g>
                <path d="M143.492,221.863L336.226,29.129c6.663-6.664,6.663-17.468,0-24.132c-6.665-6.662-17.468-6.662-24.132,0l-204.8,204.8
			c-6.662,6.664-6.662,17.468,0,24.132l204.8,204.8c6.78,6.548,17.584,6.36,24.132-0.42c6.387-6.614,6.387-17.099,0-23.712
			L143.492,221.863z"/>
            </g>
        </g>
    </symbol>

    <symbol id="arrow-right" viewBox="0 0 512.002 512.002">
        <g>
            <g>
                <path d="M388.425,241.951L151.609,5.79c-7.759-7.733-20.321-7.72-28.067,0.04c-7.74,7.759-7.72,20.328,0.04,28.067l222.72,222.105
			L123.574,478.106c-7.759,7.74-7.779,20.301-0.04,28.061c3.883,3.89,8.97,5.835,14.057,5.835c5.074,0,10.141-1.932,14.017-5.795
			l236.817-236.155c3.737-3.718,5.834-8.778,5.834-14.05S392.156,245.676,388.425,241.951z"/>
            </g>
        </g>
    </symbol>

    <symbol id="arrow-bottom" viewBox="0 0 512.011 512.011">
        <g>
            <g>
                <path d="M505.755,123.592c-8.341-8.341-21.824-8.341-30.165,0L256.005,343.176L36.421,123.592c-8.341-8.341-21.824-8.341-30.165,0
			s-8.341,21.824,0,30.165l234.667,234.667c4.16,4.16,9.621,6.251,15.083,6.251c5.462,0,10.923-2.091,15.083-6.251l234.667-234.667
			C514.096,145.416,514.096,131.933,505.755,123.592z"/>
            </g>
        </g>
    </symbol>


    <symbol id="login" viewBox="0 0 512 512">
        <g>
            <g>
                <path d="M448,0H192c-8.832,0-16,7.168-16,16v160h32V32h224v448H208V336h-32v160c0,8.832,7.168,16,16,16h256
			c8.832,0,16-7.168,16-16V16C464,7.168,456.832,0,448,0z"/>
            </g>
        </g>
        <g>
            <g>
                <path d="M363.312,244.688l-96-96l-22.624,22.624L313.376,240H48v32h265.376l-68.688,68.688l22.624,22.624l96-96
			C369.568,261.056,369.568,250.944,363.312,244.688z"/>
            </g>
        </g>
    </symbol>

    <symbol id="play" viewBox="0 0 163.861 163.861">
        <g>
            <path d="M34.857,3.613C20.084-4.861,8.107,2.081,8.107,19.106v125.637c0,17.042,11.977,23.975,26.75,15.509L144.67,97.275
		c14.778-8.477,14.778-22.211,0-30.686L34.857,3.613z"/>
        </g>
    </symbol>

</svg>