<svg xmlns="http://www.w3.org/2000/svg" display="none">
    <symbol id="instagram" viewBox="0 0 512 512">
        <path stroke="#030c1b"
              d="m305 256c0 27.0625-21.9375 49-49 49s-49-21.9375-49-49 21.9375-49 49-49 49 21.9375 49 49zm0 0"/>
        <path stroke="#030c1b"
              d="m370.59375 169.304688c-2.355469-6.382813-6.113281-12.160157-10.996094-16.902344-4.742187-4.882813-10.515625-8.640625-16.902344-10.996094-5.179687-2.011719-12.960937-4.40625-27.292968-5.058594-15.503906-.707031-20.152344-.859375-59.402344-.859375-39.253906 0-43.902344.148438-59.402344.855469-14.332031.65625-22.117187 3.050781-27.292968 5.0625-6.386719 2.355469-12.164063 6.113281-16.902344 10.996094-4.882813 4.742187-8.640625 10.515625-11 16.902344-2.011719 5.179687-4.40625 12.964843-5.058594 27.296874-.707031 15.5-.859375 20.148438-.859375 59.402344 0 39.25.152344 43.898438.859375 59.402344.652344 14.332031 3.046875 22.113281 5.058594 27.292969 2.359375 6.386719 6.113281 12.160156 10.996094 16.902343 4.742187 4.882813 10.515624 8.640626 16.902343 10.996094 5.179688 2.015625 12.964844 4.410156 27.296875 5.0625 15.5.707032 20.144532.855469 59.398438.855469 39.257812 0 43.90625-.148437 59.402344-.855469 14.332031-.652344 22.117187-3.046875 27.296874-5.0625 12.820313-4.945312 22.953126-15.078125 27.898438-27.898437 2.011719-5.179688 4.40625-12.960938 5.0625-27.292969.707031-15.503906.855469-20.152344.855469-59.402344 0-39.253906-.148438-43.902344-.855469-59.402344-.652344-14.332031-3.046875-22.117187-5.0625-27.296874zm-114.59375 162.179687c-41.691406 0-75.488281-33.792969-75.488281-75.484375s33.796875-75.484375 75.488281-75.484375c41.6875 0 75.484375 33.792969 75.484375 75.484375s-33.796875 75.484375-75.484375 75.484375zm78.46875-136.3125c-9.742188 0-17.640625-7.898437-17.640625-17.640625s7.898437-17.640625 17.640625-17.640625 17.640625 7.898437 17.640625 17.640625c-.003906 9.742188-7.898437 17.640625-17.640625 17.640625zm0 0"/>
        <path stroke="#030c1b"
              d="m256 0c-141.363281 0-256 114.636719-256 256s114.636719 256 256 256 256-114.636719 256-256-114.636719-256-256-256zm146.113281 316.605469c-.710937 15.648437-3.199219 26.332031-6.832031 35.683593-7.636719 19.746094-23.246094 35.355469-42.992188 42.992188-9.347656 3.632812-20.035156 6.117188-35.679687 6.832031-15.675781.714844-20.683594.886719-60.605469.886719-39.925781 0-44.929687-.171875-60.609375-.886719-15.644531-.714843-26.332031-3.199219-35.679687-6.832031-9.8125-3.691406-18.695313-9.476562-26.039063-16.957031-7.476562-7.339844-13.261719-16.226563-16.953125-26.035157-3.632812-9.347656-6.121094-20.035156-6.832031-35.679687-.722656-15.679687-.890625-20.6875-.890625-60.609375s.167969-44.929688.886719-60.605469c.710937-15.648437 3.195312-26.332031 6.828125-35.683593 3.691406-9.808594 9.480468-18.695313 16.960937-26.035157 7.339844-7.480469 16.226563-13.265625 26.035157-16.957031 9.351562-3.632812 20.035156-6.117188 35.683593-6.832031 15.675781-.714844 20.683594-.886719 60.605469-.886719s44.929688.171875 60.605469.890625c15.648437.710937 26.332031 3.195313 35.683593 6.824219 9.808594 3.691406 18.695313 9.480468 26.039063 16.960937 7.476563 7.34375 13.265625 16.226563 16.953125 26.035157 3.636719 9.351562 6.121094 20.035156 6.835938 35.683593.714843 15.675781.882812 20.683594.882812 60.605469s-.167969 44.929688-.886719 60.605469zm0 0"/>
    </symbol>

    <symbol id="instagram2" viewBox="0 0 512 512">
        <g>
            <path d="M256,152c-57.9,0-105,47.1-105,105s47.1,105,105,105s105-47.1,105-105S313.9,152,256,152z M256,152   c-57.9,0-105,47.1-105,105s47.1,105,105,105s105-47.1,105-105S313.9,152,256,152z M437,0H75C33.6,0,0,33.6,0,75v362   c0,41.4,33.6,75,75,75h362c41.4,0,75-33.6,75-75V75C512,33.6,478.4,0,437,0z M256,392c-74.399,0-135-60.601-135-135   c0-74.401,60.601-135,135-135s135,60.599,135,135C391,331.399,330.399,392,256,392z M421,122c-16.5,0-30-13.5-30-30s13.5-30,30-30   s30,13.5,30,30S437.5,122,421,122z M256,152c-57.9,0-105,47.1-105,105s47.1,105,105,105s105-47.1,105-105S313.9,152,256,152z    M256,152c-57.9,0-105,47.1-105,105s47.1,105,105,105s105-47.1,105-105S313.9,152,256,152z M256,152c-57.9,0-105,47.1-105,105   s47.1,105,105,105s105-47.1,105-105S313.9,152,256,152z"/>
        </g>
    </symbol>

    <symbol id="facebook" viewBox="0 0 167.657 167.657">
        <g>
            <path stroke="#030c1b" d="M83.829,0.349C37.532,0.349,0,37.881,0,84.178c0,41.523,30.222,75.911,69.848,82.57v-65.081H49.626
		v-23.42h20.222V60.978c0-20.037,12.238-30.956,30.115-30.956c8.562,0,15.92,0.638,18.056,0.919v20.944l-12.399,0.006
		c-9.72,0-11.594,4.618-11.594,11.397v14.947h23.193l-3.025,23.42H94.026v65.653c41.476-5.048,73.631-40.312,73.631-83.154
		C167.657,37.881,130.125,0.349,83.829,0.349z"/>
        </g>
    </symbol>


    <symbol id="facebook2" viewBox="0 0 512 512">
        <path d="m437 0h-362c-41.351562 0-75 33.648438-75 75v362c0 41.351562 33.648438 75 75 75h151v-181h-60v-90h60v-61c0-49.628906 40.371094-90 90-90h91v90h-91v61h91l-15 90h-76v181h121c41.351562 0 75-33.648438 75-75v-362c0-41.351562-33.648438-75-75-75zm0 0"/>
    </symbol>

    <symbol id="linkedin" viewBox="0 0 512 512">
        <path d="m475.074219 0h-438.148438c-20.394531 0-36.925781 16.53125-36.925781 36.925781v438.148438c0 20.394531 16.53125 36.925781 36.925781 36.925781h438.148438c20.394531 0 36.925781-16.53125 36.925781-36.925781v-438.148438c0-20.394531-16.53125-36.925781-36.925781-36.925781zm-293.464844 387h-62.347656v-187.574219h62.347656zm-31.171875-213.1875h-.40625c-20.921875 0-34.453125-14.402344-34.453125-32.402344 0-18.40625 13.945313-32.410156 35.273437-32.410156 21.328126 0 34.453126 14.003906 34.859376 32.410156 0 18-13.53125 32.402344-35.273438 32.402344zm255.984375 213.1875h-62.339844v-100.347656c0-25.21875-9.027343-42.417969-31.585937-42.417969-17.222656 0-27.480469 11.601563-31.988282 22.800781-1.648437 4.007813-2.050781 9.609375-2.050781 15.214844v104.75h-62.34375s.816407-169.976562 0-187.574219h62.34375v26.558594c8.285157-12.78125 23.109375-30.960937 56.1875-30.960937 41.019531 0 71.777344 26.808593 71.777344 84.421874zm0 0"/>
    </symbol>

    <symbol id="telegram" viewBox="0 0 24 24">
        <circle cx="12" cy="12" fill="#e4e6ee" r="12"/>
        <path d="m5.491 11.74 11.57-4.461c.537-.194 1.006.131.832.943l.001-.001-1.97 9.281c-.146.658-.537.818-1.084.508l-3-2.211-1.447 1.394c-.16.16-.295.295-.605.295l.213-3.053 5.56-5.023c.242-.213-.054-.333-.373-.121l-6.871 4.326-2.962-.924c-.643-.204-.657-.643.136-.953z"/>
    </symbol>

    <symbol id="twitter" viewBox="0 0 512 512">
        <g>
            <g>
                <path d="M512,97.248c-19.04,8.352-39.328,13.888-60.48,16.576c21.76-12.992,38.368-33.408,46.176-58.016
			c-20.288,12.096-42.688,20.64-66.56,25.408C411.872,60.704,384.416,48,354.464,48c-58.112,0-104.896,47.168-104.896,104.992
			c0,8.32,0.704,16.32,2.432,23.936c-87.264-4.256-164.48-46.08-216.352-109.792c-9.056,15.712-14.368,33.696-14.368,53.056
			c0,36.352,18.72,68.576,46.624,87.232c-16.864-0.32-33.408-5.216-47.424-12.928c0,0.32,0,0.736,0,1.152
			c0,51.008,36.384,93.376,84.096,103.136c-8.544,2.336-17.856,3.456-27.52,3.456c-6.72,0-13.504-0.384-19.872-1.792
			c13.6,41.568,52.192,72.128,98.08,73.12c-35.712,27.936-81.056,44.768-130.144,44.768c-8.608,0-16.864-0.384-25.12-1.44
			C46.496,446.88,101.6,464,161.024,464c193.152,0,298.752-160,298.752-298.688c0-4.64-0.16-9.12-0.384-13.568
			C480.224,136.96,497.728,118.496,512,97.248z"/>
            </g>
        </g>

    </symbol>

    <symbol id="user" viewBox="-42 0 512 512.002">
        <path d="m210.351562 246.632812c33.882813 0 63.222657-12.152343 87.195313-36.128906 23.972656-23.972656 36.125-53.304687 36.125-87.191406 0-33.875-12.152344-63.210938-36.128906-87.191406-23.976563-23.96875-53.3125-36.121094-87.191407-36.121094-33.886718 0-63.21875 12.152344-87.191406 36.125s-36.128906 53.308594-36.128906 87.1875c0 33.886719 12.15625 63.222656 36.132812 87.195312 23.976563 23.96875 53.3125 36.125 87.1875 36.125zm0 0"/>
        <path d="m426.128906 393.703125c-.691406-9.976563-2.089844-20.859375-4.148437-32.351563-2.078125-11.578124-4.753907-22.523437-7.957031-32.527343-3.308594-10.339844-7.808594-20.550781-13.371094-30.335938-5.773438-10.15625-12.554688-19-20.164063-26.277343-7.957031-7.613282-17.699219-13.734376-28.964843-18.199219-11.226563-4.441407-23.667969-6.691407-36.976563-6.691407-5.226563 0-10.28125 2.144532-20.042969 8.5-6.007812 3.917969-13.035156 8.449219-20.878906 13.460938-6.707031 4.273438-15.792969 8.277344-27.015625 11.902344-10.949219 3.542968-22.066406 5.339844-33.039063 5.339844-10.972656 0-22.085937-1.796876-33.046874-5.339844-11.210938-3.621094-20.296876-7.625-26.996094-11.898438-7.769532-4.964844-14.800782-9.496094-20.898438-13.46875-9.75-6.355468-14.808594-8.5-20.035156-8.5-13.3125 0-25.75 2.253906-36.972656 6.699219-11.257813 4.457031-21.003906 10.578125-28.96875 18.199219-7.605469 7.28125-14.390625 16.121094-20.15625 26.273437-5.558594 9.785157-10.058594 19.992188-13.371094 30.339844-3.199219 10.003906-5.875 20.945313-7.953125 32.523437-2.058594 11.476563-3.457031 22.363282-4.148437 32.363282-.679688 9.796875-1.023438 19.964844-1.023438 30.234375 0 26.726562 8.496094 48.363281 25.25 64.320312 16.546875 15.746094 38.441406 23.734375 65.066406 23.734375h246.53125c26.625 0 48.511719-7.984375 65.0625-23.734375 16.757813-15.945312 25.253906-37.585937 25.253906-64.324219-.003906-10.316406-.351562-20.492187-1.035156-30.242187zm0 0"/>
    </symbol>

    <symbol id="youtube" viewBox="-21 -117 682.66672 682">
        <path d="m626.8125 64.035156c-7.375-27.417968-28.992188-49.03125-56.40625-56.414062-50.082031-13.703125-250.414062-13.703125-250.414062-13.703125s-200.324219 0-250.40625 13.183593c-26.886719 7.375-49.03125 29.519532-56.40625 56.933594-13.179688 50.078125-13.179688 153.933594-13.179688 153.933594s0 104.378906 13.179688 153.933594c7.382812 27.414062 28.992187 49.027344 56.410156 56.410156 50.605468 13.707031 250.410156 13.707031 250.410156 13.707031s200.324219 0 250.40625-13.183593c27.417969-7.378907 49.03125-28.992188 56.414062-56.40625 13.175782-50.082032 13.175782-153.933594 13.175782-153.933594s.527344-104.382813-13.183594-154.460938zm-370.601562 249.878906v-191.890624l166.585937 95.945312zm0 0"/>
    </symbol>

    <symbol id="star" viewBox="0 0 24 24">
        <path d="m23.363 8.584-7.378-1.127-3.307-7.044c-.247-.526-1.11-.526-1.357 0l-3.306 7.044-7.378 1.127c-.606.093-.848.83-.423 1.265l5.36 5.494-1.267 7.767c-.101.617.558 1.08 1.103.777l6.59-3.642 6.59 3.643c.54.3 1.205-.154 1.103-.777l-1.267-7.767 5.36-5.494c.425-.436.182-1.173-.423-1.266z"/>
    </symbol>

    <symbol id="arrow-left" viewBox="0 0 443.52 443.52">
        <g>
            <g>
                <path d="M143.492,221.863L336.226,29.129c6.663-6.664,6.663-17.468,0-24.132c-6.665-6.662-17.468-6.662-24.132,0l-204.8,204.8
			c-6.662,6.664-6.662,17.468,0,24.132l204.8,204.8c6.78,6.548,17.584,6.36,24.132-0.42c6.387-6.614,6.387-17.099,0-23.712
			L143.492,221.863z"/>
            </g>
        </g>
    </symbol>

    <symbol id="arrow-right" viewBox="0 0 512.002 512.002">
        <g>
            <g>
                <path d="M388.425,241.951L151.609,5.79c-7.759-7.733-20.321-7.72-28.067,0.04c-7.74,7.759-7.72,20.328,0.04,28.067l222.72,222.105
			L123.574,478.106c-7.759,7.74-7.779,20.301-0.04,28.061c3.883,3.89,8.97,5.835,14.057,5.835c5.074,0,10.141-1.932,14.017-5.795
			l236.817-236.155c3.737-3.718,5.834-8.778,5.834-14.05S392.156,245.676,388.425,241.951z"/>
            </g>
        </g>
    </symbol>

    <symbol id="arrow-bottom" viewBox="0 0 512.011 512.011">
        <g>
            <g>
                <path d="M505.755,123.592c-8.341-8.341-21.824-8.341-30.165,0L256.005,343.176L36.421,123.592c-8.341-8.341-21.824-8.341-30.165,0
			s-8.341,21.824,0,30.165l234.667,234.667c4.16,4.16,9.621,6.251,15.083,6.251c5.462,0,10.923-2.091,15.083-6.251l234.667-234.667
			C514.096,145.416,514.096,131.933,505.755,123.592z"/>
            </g>
        </g>
    </symbol>


    <symbol id="login" viewBox="0 0 512 512">
        <g>
            <g>
                <path d="M448,0H192c-8.832,0-16,7.168-16,16v160h32V32h224v448H208V336h-32v160c0,8.832,7.168,16,16,16h256
			c8.832,0,16-7.168,16-16V16C464,7.168,456.832,0,448,0z"/>
            </g>
        </g>
        <g>
            <g>
                <path d="M363.312,244.688l-96-96l-22.624,22.624L313.376,240H48v32h265.376l-68.688,68.688l22.624,22.624l96-96
			C369.568,261.056,369.568,250.944,363.312,244.688z"/>
            </g>
        </g>
    </symbol>

    <symbol id="play" viewBox="0 0 163.861 163.861">
        <g>
            <path d="M34.857,3.613C20.084-4.861,8.107,2.081,8.107,19.106v125.637c0,17.042,11.977,23.975,26.75,15.509L144.67,97.275
		c14.778-8.477,14.778-22.211,0-30.686L34.857,3.613z"/>
        </g>
    </symbol>

    <symbol id="apple" viewBox="0 0 512 512">
        <g>
            <g>
                <path d="M407,0H105C47.103,0,0,47.103,0,105v302c0,57.897,47.103,105,105,105h302c57.897,0,105-47.103,105-105V105
			C512,47.103,464.897,0,407,0z M270.683,101.284C293.548,71.147,325.336,71,325.336,71s4.728,28.333-17.987,55.628
			c-24.254,29.145-51.823,24.375-51.823,24.375S250.35,128.082,270.683,101.284z M320.809,418.489
			c-20.333,0-36.139-13.702-57.562-13.702c-21.831,0-43.496,14.213-57.605,14.213c-40.423,0-91.491-87.504-91.491-157.842
			c0-69.204,43.226-105.507,83.771-105.507c26.357,0,46.811,15.2,60.513,15.2c11.764,0,33.594-16.169,62.011-16.169
			c48.915,0,68.157,34.806,68.157,34.806s-37.635,19.242-37.635,65.932c0,52.671,46.883,70.823,46.883,70.823
			S365.076,418.489,320.809,418.489z"/>
            </g>
        </g>
    </symbol>

    <symbol id="facebook3" viewBox="0 0 291.319 291.319">
        <g>
            <path style="fill:#3B5998;" d="M145.659,0c80.45,0,145.66,65.219,145.66,145.66c0,80.45-65.21,145.659-145.66,145.659
		S0,226.109,0,145.66C0,65.219,65.21,0,145.659,0z"/>
            <path style="fill:#FFFFFF;" d="M163.394,100.277h18.772v-27.73h-22.067v0.1c-26.738,0.947-32.218,15.977-32.701,31.763h-0.055
		v13.847h-18.207v27.156h18.207v72.793h27.439v-72.793h22.477l4.342-27.156h-26.81v-8.366
		C154.791,104.556,158.341,100.277,163.394,100.277z"/>
        </g>
    </symbol>

    <symbol id="view" viewBox="0 0 511.992 511.992">
        <g>
            <g>
                <path d="M510.096,249.937c-4.032-5.867-100.928-143.275-254.101-143.275C124.56,106.662,7.44,243.281,2.512,249.105
			c-3.349,3.968-3.349,9.792,0,13.781C7.44,268.71,124.56,405.329,255.995,405.329S504.549,268.71,509.477,262.886
			C512.571,259.217,512.848,253.905,510.096,249.937z M255.995,383.996c-105.365,0-205.547-100.48-230.997-128
			c25.408-27.541,125.483-128,230.997-128c123.285,0,210.304,100.331,231.552,127.424
			C463.013,282.065,362.256,383.996,255.995,383.996z"/>
            </g>
        </g>
        <g>
            <g>
                <path d="M255.995,170.662c-47.061,0-85.333,38.272-85.333,85.333s38.272,85.333,85.333,85.333s85.333-38.272,85.333-85.333
			S303.056,170.662,255.995,170.662z M255.995,319.996c-35.285,0-64-28.715-64-64s28.715-64,64-64s64,28.715,64,64
			S291.28,319.996,255.995,319.996z"/>
            </g>
        </g>
    </symbol>

    <symbol id="google" viewBox="0 0 24 24">
        <path d="m12 24c6.624 0 12-5.376 12-12s-5.376-12-12-12-12 5.376-12 12 5.376 12 12 12zm4.283-12.857h1.718v-1.717h1.718v1.718h1.703v1.718h-1.703v1.718h-1.718v-1.718h-1.718zm-3.687-3.581-1.626 1.578c-2.08-2.033-6.127-.552-6.127 2.855 0 4.621 6.559 4.937 7.128 1.2h-3.392v-2.061h5.657c.642 3.356-1.525 6.866-5.657 6.866v.001c-3.329 0-6.001-2.686-6.001-6.001.001-5.338 6.333-7.861 10.018-4.438z"
              fill="#f44336"/>
    </symbol>

    <symbol id="star2" viewBox="0 0 512.001 512.001">
        <g>
            <g>
                <path d="M511.266,197.256c-1.764-5.431-6.458-9.388-12.108-10.209l-158.722-23.065L269.452,20.155
			c-2.527-5.12-7.741-8.361-13.451-8.361c-5.709,0-10.924,3.242-13.451,8.361l-70.988,143.828L12.843,187.047
			c-5.65,0.821-10.344,4.779-12.108,10.209c-1.765,5.43-0.293,11.391,3.795,15.376l114.848,111.955L92.27,482.67
			c-0.965,5.627,1.349,11.315,5.968,14.67c4.618,3.355,10.74,3.798,15.797,1.142L256,423.846l141.961,74.637
			c2.195,1.154,4.591,1.723,6.979,1.723c3.11,0,6.206-0.966,8.818-2.865c4.619-3.356,6.933-9.043,5.968-14.671L392.61,324.587
			l114.86-111.954C511.559,208.647,513.031,202.686,511.266,197.256z M366.023,308.608c-3.536,3.446-5.15,8.412-4.314,13.278
			l23.311,135.898l-122.038-64.162c-4.37-2.297-9.591-2.297-13.961,0l-122.045,64.163l23.304-135.9
			c0.834-4.866-0.779-9.83-4.313-13.276l-98.731-96.244l136.445-19.829c4.886-0.71,9.108-3.778,11.294-8.205L256,60.685
			l61.023,123.645c2.186,4.427,6.408,7.496,11.294,8.206l136.447,19.828L366.023,308.608z"/>
            </g>
        </g>
    </symbol>

    <symbol id="icon-menu1" viewBox="0 0 512.001 512.001">
        <g>
            <g>
                <path d="M511.266,197.256c-1.764-5.431-6.458-9.388-12.108-10.209l-158.722-23.065L269.452,20.155
			c-2.527-5.12-7.741-8.361-13.451-8.361c-5.709,0-10.924,3.242-13.451,8.361l-70.988,143.828L12.843,187.047
			c-5.65,0.821-10.344,4.779-12.108,10.209c-1.765,5.43-0.293,11.391,3.795,15.376l114.848,111.955L92.27,482.67
			c-0.965,5.627,1.349,11.315,5.968,14.67c4.618,3.355,10.74,3.798,15.797,1.142L256,423.846l141.961,74.637
			c2.195,1.154,4.591,1.723,6.979,1.723c3.11,0,6.206-0.966,8.818-2.865c4.619-3.356,6.933-9.043,5.968-14.671L392.61,324.587
			l114.86-111.954C511.559,208.647,513.031,202.686,511.266,197.256z M366.023,308.608c-3.536,3.446-5.15,8.412-4.314,13.278
			l23.311,135.898l-122.038-64.162c-4.37-2.297-9.591-2.297-13.961,0l-122.045,64.163l23.304-135.9
			c0.834-4.866-0.779-9.83-4.313-13.276l-98.731-96.244l136.445-19.829c4.886-0.71,9.108-3.778,11.294-8.205L256,60.685
			l61.023,123.645c2.186,4.427,6.408,7.496,11.294,8.206l136.447,19.828L366.023,308.608z"/>
            </g>
        </g>
    </symbol>


    <symbol id="icon-menu2" viewBox="0 0 512 512">
        <g>
            <circle cx="256" cy="256" fill="#ffe14d" r="256"/>
            <path d="m512 256c0-141.159-114.841-256-256-256v512c141.159 0 256-114.841 256-256z" fill="#fb3"/>
            <g>
                <g>
                    <path d="m256 451c-107.52 0-195-87.48-195-195s87.48-195 195-195 195 87.48 195 195-87.48 195-195 195z"
                          fill="#fb3"/>
                </g>
            </g>
            <path d="m451 256c0-107.52-87.48-195-195-195v390c107.52 0 195-87.48 195-195z" fill="#e68a2e"/>
            <g id="Cent_2_">
                <path d="m271 242.068v-59.306c17.252 4.233 30 15.333 30 28.092 0 8.291 6.709 15 15 15s15-6.709 15-15c0-28.982-25.801-53.214-60-58.786v-16.214c0-8.291-6.709-15-15-15s-15 6.709-15 15v16.214c-34.199 5.572-60 29.804-60 58.786s25.801 53.214 60 58.786v59.306c-17.252-4.233-30-15.333-30-28.092 0-8.291-6.709-15-15-15s-15 6.709-15 15c0 28.982 25.801 53.214 60 58.786v16.36c0 8.291 6.709 15 15 15s15-6.709 15-15v-16.36c34.199-5.572 60-29.804 60-58.786s-25.801-53.215-60-58.786zm-60-31.214c0-12.759 12.748-23.859 30-28.092v56.184c-17.252-4.234-30-15.334-30-28.092zm60 118.092v-56.184c17.252 4.233 30 15.333 30 28.092s-12.748 23.858-30 28.092z"
                      fill="#ffe14d"/>
            </g>
            <path d="m271 376v-16.36c34.199-5.572 60-29.804 60-58.786s-25.801-53.214-60-58.786v-59.306c17.252 4.233 30 15.333 30 28.092 0 8.291 6.709 15 15 15s15-6.709 15-15c0-28.982-25.801-53.214-60-58.786v-16.214c0-8.291-6.709-15-15-15v270.146c8.291 0 15-6.709 15-15zm0-103.239c17.252 4.233 30 15.333 30 28.092s-12.748 23.859-30 28.092z"
                  fill="#fb3"/>
        </g>
    </symbol>

    <symbol id="icon-menu3" viewBox="0 0 512.001 512.001">
        <g>
            <path style="fill:#DD9F3A;" d="M369.384,138.014v47.429c0,12.935-10.485,23.42-23.42,23.42H65.489
		c-12.935,0-23.42-10.485-23.42-23.42v-47.429c0-12.925,10.485-23.41,23.42-23.41h280.474
		C358.899,114.604,369.384,125.089,369.384,138.014z"/>
            <path style="fill:#DD9F3A;" d="M327.315,232.281v47.429c0,12.935-10.485,23.42-23.42,23.42H23.42C10.485,303.13,0,292.645,0,279.71
		v-47.429c0-12.925,10.485-23.41,23.42-23.41h280.474C316.83,208.871,327.315,219.356,327.315,232.281z"/>
            <path style="fill:#DD9F3A;" d="M343.091,326.546v47.429c0,12.935-10.485,23.42-23.42,23.42H39.196
		c-12.935,0-23.42-10.485-23.42-23.42v-47.429c0-12.925,10.485-23.41,23.42-23.41H319.67
		C332.606,303.136,343.091,313.621,343.091,326.546z"/>
            <path style="fill:#DD9F3A;" d="M327.315,420.813v47.429c0,12.935-10.485,23.42-23.42,23.42H23.42
		c-12.935,0-23.42-10.485-23.42-23.42v-47.429c0-12.925,10.485-23.41,23.42-23.41h280.474
		C316.83,397.403,327.315,407.888,327.315,420.813z"/>
        </g>
        <path id="SVGCleanerId_0" style="fill:#F4B74A;" d="M327.317,420.814v32.706c0,12.094-9.17,22.053-20.938,23.294
	c-0.82,0.084-1.641,0.126-2.482,0.126H81.063c-12.925,0-23.41-10.485-23.41-23.42v-32.706c0-12.925,10.485-23.41,23.41-23.41
	h222.834C316.832,397.404,327.317,407.889,327.317,420.814z"/>
        <g>
            <path id="SVGCleanerId_0_1_" style="fill:#F4B74A;" d="M327.317,420.814v32.706c0,12.094-9.17,22.053-20.938,23.294
		c-0.82,0.084-1.641,0.126-2.482,0.126H81.063c-12.925,0-23.41-10.485-23.41-23.42v-32.706c0-12.925,10.485-23.41,23.41-23.41
		h222.834C316.832,397.404,327.317,407.889,327.317,420.814z"/>
        </g>
        <g>
            <path style="fill:#F4B74A;" d="M327.316,326.545v32.706c0,12.094-9.17,22.053-20.938,23.294c-0.82,0.084-1.641,0.126-2.482,0.126
		H81.062c-12.925,0-23.41-10.485-23.41-23.42v-32.706c0-12.925,10.485-23.41,23.41-23.41h222.834
		C316.832,303.134,327.316,313.619,327.316,326.545z"/>
            <path style="fill:#F4B74A;" d="M327.316,232.286v32.706c0,12.094-9.17,22.053-20.938,23.294c-0.82,0.084-1.641,0.126-2.482,0.126
		H81.062c-12.925,0-23.41-10.485-23.41-23.42v-32.706c0-12.925,10.485-23.41,23.41-23.41h222.834
		C316.832,208.876,327.316,219.361,327.316,232.286z"/>
            <path style="fill:#F4B74A;" d="M369.382,138.016v32.706c0,12.094-9.17,22.053-20.938,23.294c-0.82,0.084-1.641,0.126-2.482,0.126
		H123.128c-12.925,0-23.41-10.485-23.41-23.42v-32.706c0-12.925,10.485-23.41,23.41-23.41h222.834
		C358.898,114.606,369.382,125.091,369.382,138.016z"/>
        </g>
        <g>
            <path style="fill:#DD9F3A;" d="M327.316,420.815v47.429c0,12.094-9.17,22.053-20.938,23.294c-2.135,0.084-4.27,0.126-6.405,0.126
		c-22.631,0-45.263-4.659-66.338-13.997c-14.145-6.257-27.564-14.628-39.826-25.092c-3.281-2.797-6.457-5.742-9.559-8.834
		c-13.85-13.85-24.693-29.562-32.538-46.336h152.184C316.831,397.405,327.316,407.89,327.316,420.815z"/>
            <path style="fill:#DD9F3A;" d="M327.316,326.545v47.429c0,12.935-10.485,23.42-23.42,23.42h-136.43
		c-13.85-29.604-18.351-62.51-13.493-94.259h149.923C316.831,303.134,327.316,313.62,327.316,326.545z"/>
            <path style="fill:#DD9F3A;" d="M327.315,43.747v47.429c0,12.935-10.485,23.42-23.42,23.42H23.42C10.485,114.597,0,104.112,0,91.177
		V43.747c0-12.925,10.485-23.41,23.42-23.41h280.474C316.83,20.338,327.315,30.823,327.315,43.747z"/>
        </g>
        <path style="fill:#F4B74A;" d="M327.317,43.745v32.706c0,12.094-9.17,22.053-20.938,23.294c-0.82,0.084-1.641,0.126-2.482,0.126
	H81.063c-12.925,0-23.41-10.485-23.41-23.42V43.745c0-12.925,10.485-23.41,23.41-23.41h222.834
	C316.832,20.336,327.317,30.821,327.317,43.745z"/>
        <g>
            <rect x="254.467" y="20.336" style="fill:#F9C662;" width="34.347" height="79.536"/>
            <rect x="212.054" y="20.336" style="fill:#F9C662;" width="17.173" height="79.536"/>
            <rect x="295.839" y="114.609" style="fill:#F9C662;" width="34.351" height="94.27"/>
            <rect x="253.416" y="114.609" style="fill:#F9C662;" width="17.176" height="94.27"/>
        </g>
        <g>
            <path style="fill:#DD9F3A;" d="M369.382,170.123v15.323c0,12.935-10.485,23.42-23.42,23.42H214.074
		C256.866,168.523,316.074,155.61,369.382,170.123z"/>
            <path style="fill:#DD9F3A;" d="M327.316,232.286v47.429c0,12.935-10.485,23.42-23.42,23.42H138.198
		c5.079-33.253,20.434-65.234,46.041-90.841c1.167-1.167,2.345-2.303,3.534-3.418h116.123
		C316.831,208.876,327.316,219.361,327.316,232.286z"/>
        </g>
        <path style="fill:#F4B74A;" d="M464.071,443.735c-49.228,49.219-122.001,60.534-182.056,33.929
	c-14.144-6.259-27.57-14.622-39.826-25.088c-3.282-2.795-6.466-5.748-9.567-8.841c-63.908-63.916-63.908-167.533,0-231.449
	c63.916-63.908,167.533-63.908,231.449,0c3.101,3.101,6.045,6.285,8.841,9.567c10.466,12.247,18.829,25.681,25.088,39.826
	C524.605,321.726,513.29,394.508,464.071,443.735z"/>
        <path style="fill:#F9C662;" d="M497.999,261.679L282.015,477.664c-14.144-6.259-27.57-14.622-39.826-25.088l230.723-230.723
	C483.377,234.1,491.74,247.535,497.999,261.679z"/>
        <path style="fill:#FFD488;" d="M464.07,328.011c0,63.912-51.812,115.723-115.723,115.723c-36.077,0-68.293-16.503-89.52-42.38
	c-16.38-19.964-26.203-45.507-26.203-73.343c0-63.912,51.812-115.723,115.723-115.723c27.842,0,53.386,9.837,73.349,26.218
	C447.566,259.724,464.07,291.942,464.07,328.011z"/>
        <path style="fill:#F9C662;" d="M421.696,238.505L258.841,401.36l-0.015-0.007c-4.781-5.825-9.003-12.13-12.579-18.826
	c-4.077-7.61-7.319-15.72-9.619-24.23c-2.611-9.655-4.005-19.812-4.005-30.287c0-63.912,51.812-115.723,115.723-115.723
	c10.483,0,20.639,1.392,30.287,4.005c8.51,2.3,16.62,5.55,24.23,9.627C409.56,229.496,415.864,233.725,421.696,238.505z"/>
        <path style="fill:#FFD488;" d="M402.864,225.919L246.248,382.528c-4.077-7.61-7.319-15.72-9.619-24.23l142.006-142.006
	C387.143,218.592,395.254,221.842,402.864,225.919z"/>
        <g>
            <path style="fill:#E0A33F;" d="M356.234,320.753v-43.436c11.5,2.68,19.915,11.056,19.915,20.953c0,4.356,3.53,7.887,7.887,7.887
		s7.887-3.531,7.887-7.887c0-18.423-15.415-33.784-35.69-36.999v-4.639c0-4.356-3.53-7.887-7.887-7.887s-7.887,3.531-7.887,7.887
		v4.639c-20.275,3.216-35.691,18.577-35.691,36.999c0,18.422,15.416,33.784,35.691,36.999v43.436
		c-11.5-2.68-19.916-11.056-19.916-20.953c0-4.356-3.53-7.887-7.887-7.887c-4.357,0-7.887,3.531-7.887,7.887
		c0,18.423,15.416,33.784,35.691,36.999v4.639c0,4.356,3.53,7.887,7.887,7.887s7.887-3.531,7.887-7.887v-4.639
		c20.275-3.215,35.69-18.577,35.69-36.999S376.509,323.969,356.234,320.753z M320.544,298.269c0-9.897,8.415-18.273,19.916-20.953
		v41.906C328.96,316.543,320.544,308.166,320.544,298.269z M356.234,378.705v-41.906c11.5,2.68,19.915,11.056,19.915,20.953
		S367.734,376.025,356.234,378.705z"/>
            <path style="fill:#E0A33F;" d="M348.347,451.622c-37.169,0-72.02-16.498-95.619-45.266c-18.05-21.999-27.992-49.823-27.992-78.345
		c0-68.159,55.452-123.611,123.611-123.611c28.514,0,56.34,9.947,78.353,28.007c28.762,23.592,45.257,58.438,45.257,95.603
		C471.956,396.17,416.506,451.622,348.347,451.622z M348.347,220.175c-59.461,0-107.836,48.375-107.836,107.836
		c0,24.882,8.67,49.153,24.413,68.339c20.59,25.101,50.996,39.497,83.423,39.497c59.46,0,107.835-48.375,107.835-107.836
		c0-32.422-14.393-62.823-39.488-83.407C397.496,228.85,373.222,220.175,348.347,220.175z"/>
        </g>

    </symbol>


    <symbol id="icon-menu4" viewBox="0 0 511.958 511.958">
        <linearGradient id="SVGID_1_" gradientUnits="userSpaceOnUse" x1="255.979" x2="255.979" y1="511.958" y2="0">
            <stop offset="0" stop-color="#fd5900"/>
            <stop offset="1" stop-color="#ffde00"/>
        </linearGradient>
        <linearGradient id="SVGID_2_" gradientUnits="userSpaceOnUse" x1="255.979" x2="255.979" y1="436.979" y2="74.979">
            <stop offset="0" stop-color="#ffe59a"/>
            <stop offset="1" stop-color="#ffffd5"/>
        </linearGradient>
        <g>
            <g>
                <g>
                    <path d="m507.1 276.466c6.477-12.829 6.477-28.146 0-40.975l-6.707-13.285c-1.462-2.896-1.973-6.121-1.478-9.328l2.273-14.707c2.196-14.202-2.537-28.77-12.662-38.969l-10.483-10.562c-2.286-2.303-3.769-5.213-4.288-8.416l-2.382-14.69c-2.276-14.028-11.105-26.302-23.66-32.927l-12.898-7.607c-.25-.147-.503-.287-.761-.419-2.885-1.483-5.194-3.792-6.677-6.678l-6.806-13.234c-6.417-12.48-19.502-21.709-34.149-24.085l-14.689-2.382c-3.203-.52-6.113-2.002-8.416-4.287l-10.562-10.485c-10.199-10.124-24.764-14.854-38.968-12.662l-14.707 2.273c-3.209.496-6.433-.015-9.329-1.477l-13.285-6.707c-12.828-6.476-28.145-6.477-40.973 0l-13.286 6.707c-2.895 1.461-6.119 1.971-9.328 1.478l-14.707-2.273c-14.205-2.197-28.77 2.538-38.969 12.662l-10.563 10.483c-2.302 2.286-5.212 3.768-8.415 4.288l-14.691 2.382c-14.646 2.376-27.731 11.604-34.148 24.085l-6.805 13.234c-1.484 2.885-3.793 5.195-6.679 6.678l-13.235 6.806c-12.48 6.417-21.709 19.502-24.084 34.148l-2.383 14.691c-.519 3.203-2.002 6.112-4.288 8.415l-10.482 10.562c-10.124 10.199-14.857 24.766-12.662 38.968l2.274 14.708c.496 3.206-.015 6.431-1.478 9.327l-6.707 13.285c-6.476 12.828-6.476 28.145 0 40.974l6.707 13.285c1.462 2.896 1.973 6.121 1.478 9.328l-2.274 14.708c-2.195 14.202 2.539 28.769 12.662 38.968l10.484 10.563c2.286 2.303 3.769 5.212 4.288 8.416l2.383 14.689c2.375 14.647 11.604 27.732 24.084 34.149l13.234 6.805c2.886 1.484 5.195 3.793 6.679 6.679l6.805 13.235c6.418 12.48 19.503 21.709 34.149 24.084l14.69 2.383c3.203.52 6.113 2.002 8.415 4.287l10.563 10.485c10.201 10.124 24.767 14.854 38.968 12.661l14.708-2.274c3.205-.496 6.432.016 9.327 1.478l13.286 6.707c6.414 3.238 13.45 4.857 20.486 4.857 7.037 0 14.073-1.619 20.487-4.857l13.285-6.707c2.896-1.462 6.123-1.972 9.328-1.478l14.707 2.273c14.202 2.194 28.769-2.538 38.969-12.662l10.562-10.484c2.302-2.286 5.212-3.768 8.416-4.288l14.689-2.383c14.028-2.275 26.303-11.104 32.928-23.66l7.607-12.898c.147-.25.287-.503.419-.761 1.483-2.885 3.793-5.194 6.678-6.678l13.234-6.805c12.78-6.571 21.784-18.963 24.085-33.149l2.382-14.689c.52-3.203 2.002-6.113 4.288-8.416.159-.16 10.746-11.828 10.746-11.828 9.943-10.186 14.576-24.624 12.399-38.702l-2.273-14.707c-.496-3.207.015-6.433 1.477-9.329z"
                          fill="url(#SVGID_1_)"/>
                </g>
            </g>
            <path d="m255.979 74.979c-99.371 0-181 81.651-181 181 0 99.371 81.651 181 181 181 99.371 0 181-81.651 181-181 0-99.371-81.652-181-181-181zm104.552 139.638-30 120c-1.669 6.677-7.669 11.362-14.552 11.362h-120c-6.883 0-12.883-4.685-14.552-11.362l-30-120c-1.767-7.069 1.802-14.386 8.461-17.346 6.658-2.959 14.481-.704 18.544 5.345 4.105 6.034 18.954 23.363 32.547 23.363 2.484 0 10.18-5.782 18.108-23.656 7.113-16.035 11.892-36.668 11.892-51.344 0-8.284 6.716-15 15-15s15 6.716 15 15c0 14.676 4.779 35.309 11.892 51.344 7.929 17.874 15.624 23.656 18.108 23.656 13.997 0 29.233-18.428 32.547-23.363 4.063-6.048 11.887-8.303 18.544-5.345 6.659 2.96 10.228 10.277 8.461 17.346z"
                  fill="url(#SVGID_2_)"/>
        </g>
    </symbol>

    <symbol id="icon-menu5" viewBox="0 0 512 512">
        <path d="m455.8125 511.660156h-399.632812c-10.46875 0-18.953126-8.484375-18.953126-18.953125v-305.589843h437.542969v305.589843c0 10.46875-8.488281 18.953125-18.957031 18.953125zm0 0"
              fill="#ffc73b"/>
        <path d="m37.226562 187.117188h437.542969v63.589843h-437.542969zm0 0" fill="#efb025"/>
        <path d="m512 120.824219v78.78125c0 8.414062-6.828125 15.230469-15.242188 15.230469h-481.527343c-8.414063 0-15.230469-6.816407-15.230469-15.230469v-78.78125c0-8.414063 6.816406-15.230469 15.230469-15.230469h481.527343c8.414063 0 15.242188 6.816406 15.242188 15.230469zm0 0"
              fill="#ffc73b"/>
        <path d="m238.59375 141.8125c-3.324219 3.871094-6.585938 7.796875-9.769531 11.765625-11.863281 14.761719-22.722657 30.230469-32.539063 46.285156-3.019531 4.9375-5.933594 9.925781-8.761718 14.972657h-103.839844c6.066406-13.765626 12.71875-27.277344 19.925781-40.484376 13.070313-23.960937 27.984375-46.953124 44.648437-68.757812 3.980469-5.207031 8.054688-10.351562 12.230469-15.417969 2.5-3.054687 5.042969-6.066406 7.621094-9.066406 9.476563 8.164063 18.945313 16.320313 28.425781 24.484375 1.46875 1.257812 2.9375 2.53125 4.402344 3.792969 11.1875 9.632812 22.375 19.261719 33.558594 28.90625 1.371094 1.164062 2.730468 2.347656 4.097656 3.519531zm0 0"
              fill="#efb025"/>
        <path d="m393.527344 214.835938h-103.847656c-2.816407-5.046876-5.742188-10.035157-8.761719-14.972657-9.816407-16.054687-20.6875-31.523437-32.539063-46.285156-3.195312-3.96875-6.457031-7.894531-9.785156-11.765625 1.371094-1.171875 2.730469-2.347656 4.101562-3.519531 11.195313-9.644531 22.382813-19.285157 33.566407-28.90625 1.46875-1.261719 2.9375-2.535157 4.40625-3.792969 9.476562-8.164062 18.957031-16.320312 28.425781-24.484375 2.578125 2.992187 5.121094 6.011719 7.621094 9.058594 4.183594 5.074219 8.261718 10.21875 12.230468 15.425781 16.664063 21.804688 31.578126 44.796875 44.65625 68.757812 7.207032 13.207032 13.859376 26.71875 19.925782 40.484376zm0 0"
              fill="#efb025"/>
        <g fill="#ff4440">
            <path d="m255.992188 141.820312c-3.328126 3.867188-6.589844 7.792969-9.773438 11.761719-11.859375 14.761719-22.722656 30.230469-32.539062 46.289063-31.164063 50.941406-51.863282 107.847656-60.59375 167.410156-13.121094-17.402344-25.230469-36.230469-36.125-56.363281-19.164063 12.5-37.894532 26.796875-55.929688 42.882812 9.261719-63.179687 29.667969-123.90625 59.976562-179.445312 16.1875-29.679688 35.210938-57.878907 56.875-84.175781 2.5-3.054688 5.042969-6.0625 7.621094-9.066407 10.945313 9.425781 21.882813 18.851563 32.832032 28.277344 11.183593 9.632813 22.371093 19.261719 33.558593 28.90625 1.367188 1.164063 2.726563 2.347656 4.097657 3.523437zm0 0"/>
            <path d="m450.960938 353.800781c-18.035157-16.085937-36.765626-30.382812-55.929688-42.882812-10.894531 20.132812-23.003906 38.960937-36.125 56.363281-8.730469-59.5625-29.425781-116.46875-60.59375-167.410156-9.816406-16.058594-20.6875-31.527344-32.539062-46.289063-3.195313-3.96875-6.457032-7.894531-9.78125-11.761719 1.367187-1.175781 2.726562-2.351562 4.097656-3.523437 11.195312-9.644531 22.382812-19.285156 33.570312-28.90625 10.945313-9.4375 21.894532-18.851563 32.828125-28.277344 2.578125 2.992188 5.121094 6.011719 7.621094 9.058594 21.667969 26.296875 40.691406 54.496094 56.886719 84.183594 30.300781 55.539062 50.703125 116.265625 59.964844 179.445312zm0 0"/>
            <path d="m215.234375 141.820312h81.527344v73.015626h-81.527344zm0 0"/>
        </g>
        <path d="m390.996094 174.355469-92.683594 25.515625c-9.816406-16.058594-20.6875-31.527344-32.539062-46.289063l-5.683594-15.285156-4.097656-11.023437 37.667968-17.882813 40.449219-19.21875c21.667969 26.296875 40.691406 54.496094 56.886719 84.183594zm0 0"
              fill="#ea2f2f"/>
        <path d="m255.992188 127.273438-4.097657 11.023437-5.675781 15.285156c-11.859375 14.761719-22.722656 30.230469-32.539062 46.289063l-92.671876-25.515625c16.1875-29.679688 35.210938-57.878907 56.875-84.175781l40.453126 19.210937zm0 0"
              fill="#ea2f2f"/>
        <path d="m403.914062 3.542969-147.917968 70.246093 28.414062 76.417969 157.882813-43.457031c20.648437-5.683594 31.992187-27.84375 24.527343-47.917969l-13.03125-35.039062c-7.460937-20.074219-30.527343-29.4375-49.875-20.25zm0 0"
              fill="#ff4440"/>
        <path d="m108.078125 3.542969 147.917969 70.246093-28.414063 76.417969-157.878906-43.457031c-20.648437-5.683594-31.992187-27.84375-24.527344-47.917969l13.027344-35.039062c7.464844-20.074219 30.527344-29.4375 49.875-20.25zm0 0"
              fill="#ff4440"/>
        <path d="m291.316406 104.5c-2.6875 0-5.324218-1.328125-6.875-3.761719-2.425781-3.792969-1.320312-8.832031 2.472656-11.257812 1.121094-.714844 27.761719-17.667969 58.347657-30.039063 44.09375-17.835937 73.539062-16.878906 87.507812 2.84375 2.605469 3.675782 1.734375 8.765625-1.941406 11.367188-3.675781 2.601562-8.761719 1.734375-11.363281-1.941406-18.9375-26.734376-97.675782 14.835937-123.765625 31.507812-1.359375.867188-2.878907 1.28125-4.382813 1.28125zm0 0"
              fill="#ea2f2f"/>
        <path d="m219.871094 104.5c-1.503906 0-3.023438-.414062-4.382813-1.28125-26.089843-16.671875-104.828125-58.242188-123.765625-31.507812-2.605468 3.675781-7.691406 4.542968-11.367187 1.941406-3.671875-2.605469-4.542969-7.691406-1.9375-11.367188 13.96875-19.722656 43.410156-20.679687 87.507812-2.84375 30.585938 12.367188 57.226563 29.324219 58.347657 30.039063 3.792968 2.425781 4.898437 7.464843 2.476562 11.257812-1.558594 2.433594-4.191406 3.761719-6.878906 3.761719zm0 0"
              fill="#ea2f2f"/>
        <path d="m279.191406 47.523438h-46.390625c-12.695312 0-22.988281 10.292968-22.988281 22.992187v67.394531c0 12.699219 10.292969 22.992188 22.988281 22.992188h46.390625c12.695313 0 22.988282-10.292969 22.988282-22.992188v-67.394531c0-12.699219-10.292969-22.992187-22.988282-22.992187zm0 0"
              fill="#ea2f2f"/>
        <path d="m215.234375 214.835938h81.527344v296.824218h-81.527344zm0 0" fill="#ff4440"/>
        <path d="m215.234375 214.835938h81.527344v35.871093h-81.527344zm0 0" fill="#ea2f2f"/>
    </symbol>

    <symbol id="icon-menu6" viewBox="0 0 474.2 474.2">
        <g>
            <g>
                <path d="M299.069,199v117.9c5.9-4.6,12.3-8.4,19-11.5V199H299.069z"/>
            </g>
        </g>
        <g>
            <g>
                <path d="M377.069,147v150.6c6.5,0.9,12.9,2.7,19,5.1V147H377.069z"/>
            </g>
        </g>
        <g>
            <g>
                <path d="M400.469,327c-10.3-6.2-22-9.9-34-10.8h-0.1c-2.1-0.2-4.1-0.3-6.2-0.3c-9.2,0-18.4,1.6-27,4.8c-1,0.6-2.1,1.1-3.3,1.3
			c-29.6,12.2-48.9,41.1-48.9,73.1c0,43.6,35.4,79.1,79.1,79.1c27.9,0,53.8-14.7,68.1-38.8C450.469,397.8,438.069,349.3,400.469,327
			z M360.169,387c13.4,0,25.5,8.2,30.4,20.7c6.5,16.7-1.7,35.6-18.5,42.2v5.5c0,5.5-4.5,10-10,10s-10-4.5-10-10v-4.5
			c-14.3-3.7-24.3-16.7-24.4-31.5v-0.1c-0.1-5.5,4.3-9.9,9.8-9.9s10,4.5,10,10c0,6.9,5.6,12.6,12.5,12.6s12.6-5.6,12.6-12.5
			c0-6.9-5.6-12.6-12.5-12.6c-14.8,0-27.7-10-31.3-24.4c-4.5-17.4,6-35.2,23.4-39.7v-7.2c0-5.5,4.5-10,10-10s10,4.5,10,10v8.3
			c12.5,4.9,20.7,17,20.7,30.4c-0.1,5.6-4.6,10-10.2,10c-5.5,0-10-4.5-10-10c0-6.9-5.6-12.6-12.6-12.6c-7,0.1-12.5,5.7-12.5,12.7
			S353.169,387,360.169,387z"/>
            </g>
        </g>
        <g>
            <g>
                <rect x="142.069" y="279" width="19" height="138"/>
            </g>
        </g>
        <g>
            <g>
                <rect x="221.069" y="256" width="19" height="161"/>
            </g>
        </g>
        <g>
            <g>
                <rect x="63.069" y="365" width="19" height="52"/>
            </g>
        </g>
        <g>
            <g>
                <path d="M414.569,0l-68.4,0.1c-5.5-0.1-10,4.4-10.1,9.9s4.4,10,9.9,10.1c0.1,0,0.1,0,0.2,0l44.3-0.1l-108.5,108.1l-37.9-37.6
			c-1.9-1.8-4.5-2.7-7.1-2.6c-2.6-0.1-5.2,0.8-7.1,2.6l-192,192c-3.9,3.9-3.9,10.2,0,14c1.9,1.9,4.4,2.9,7.1,2.9s5.2-1,7.1-2.9
			l185-185l37.9,38.2c1.8,2,4.4,3.1,7.1,3.2c2.7-0.1,5.2-1.2,7.1-3.2l115.4-115.5l-0.1,44.5c0,5.6,4.4,10.1,10,10.3
			c5.6-0.1,10-4.7,10-10.3l0.1-68.6C424.569,4.6,420.069,0,414.569,0z"/>
            </g>
        </g>
    </symbol>

    <symbol id="icon-menu9" viewBox="0 0 24 24">
        <path d="m9.417 15.181-.397 5.584c.568 0 .814-.244 1.109-.537l2.663-2.545 5.518 4.041c1.012.564 1.725.267 1.998-.931l3.622-16.972.001-.001c.321-1.496-.541-2.081-1.527-1.714l-21.29 8.151c-1.453.564-1.431 1.374-.247 1.741l5.443 1.693 12.643-7.911c.595-.394 1.136-.176.691.218z"/>
    </symbol>

    <symbol id="icon-menu10" viewBox="0 0 512.002 512.002">
        <g>
            <g>
                <path d="M504.5,248.501H383.742v-17.064h32.581c4.142,0,7.5-3.358,7.5-7.5c0-4.142-3.358-7.5-7.5-7.5h-32.581v-17.065h22.62
			c8.427,0,16.35-3.281,22.308-9.24l49.326-49.326c3.214,1.601,6.777,2.453,10.473,2.453c6.286,0,12.195-2.448,16.64-6.892
			c4.445-4.445,6.893-10.354,6.893-16.64c0-6.286-2.448-12.195-6.893-16.64c-4.444-4.445-10.354-6.893-16.64-6.893
			s-12.195,2.448-16.64,6.892c-4.445,4.445-6.893,10.354-6.893,16.64c0,3.696,0.852,7.259,2.453,10.473l-49.326,49.326
			c-3.125,3.125-7.281,4.847-11.702,4.847h-22.62v-16.548c0-21.816-17.749-39.564-39.564-39.564h-16.548V61.865
			c9.308-3.139,16.032-11.946,16.032-22.3c0-12.976-10.557-23.532-23.532-23.532c-12.975,0-23.532,10.557-23.532,23.532
			c0,10.354,6.724,19.16,16.032,22.3v66.394h-17.064V95.678c0-4.142-3.358-7.5-7.5-7.5c-4.142,0-7.5,3.358-7.5,7.5v32.581H263.5
			V7.501c0-4.142-3.358-7.5-7.5-7.5c-4.142,0-7.5,3.358-7.5,7.5v120.758h-17.064V95.678c0-4.142-3.358-7.5-7.5-7.5
			c-4.142,0-7.5,3.358-7.5,7.5v32.581h-17.064V105.64c0-8.427-3.282-16.35-9.241-22.308l-49.343-49.343
			c4.359-8.801,2.898-19.775-4.421-27.095c-9.176-9.175-24.105-9.174-33.28,0c-9.175,9.175-9.175,24.104,0,33.28
			c4.588,4.587,10.614,6.881,16.64,6.881c3.588,0,7.17-0.833,10.455-2.46l49.343,49.344c3.126,3.125,4.847,7.281,4.847,11.701
			v22.619h-16.548c-3.345,0-6.672,0.42-9.888,1.247c-4.011,1.032-6.426,5.121-5.394,9.133c1.032,4.012,5.122,6.427,9.133,5.394
			c1.995-0.513,4.063-0.774,6.148-0.774h176.354c13.545,0,24.564,11.02,24.564,24.564v176.355c0,2.083-0.26,4.15-0.772,6.143
			c-1.031,4.012,1.385,8.1,5.396,9.131c0.626,0.161,1.254,0.238,1.873,0.238c3.341,0,6.388-2.249,7.258-5.635
			c0.826-3.212,1.245-6.536,1.245-9.878v-16.548h66.394c3.139,9.308,11.946,16.032,22.3,16.032
			c12.976,0,23.532-10.556,23.532-23.532s-10.557-23.532-23.532-23.532c-10.354,0-19.16,6.724-22.3,16.032h-66.394v-17.065h32.581
			c4.142,0,7.5-3.358,7.5-7.5c0-4.142-3.358-7.5-7.5-7.5h-32.581v-17.063H504.5c4.142,0,7.5-3.358,7.5-7.5
			C512,251.859,508.642,248.501,504.5,248.501z M482.435,113.694c1.612-1.612,3.754-2.499,6.033-2.499s4.421,0.887,6.033,2.499
			s2.499,3.754,2.499,6.033s-0.887,4.421-2.499,6.033s-3.754,2.499-6.033,2.499s-4.421-0.887-6.033-2.499s-2.499-3.754-2.499-6.033
			S480.823,115.305,482.435,113.694z M125.759,29.568c-3.326,3.325-8.739,3.326-12.067-0.001c-3.327-3.327-3.327-8.74,0-12.066
			c1.664-1.664,3.848-2.495,6.034-2.495c2.185,0,4.37,0.832,6.033,2.495C129.086,20.828,129.086,26.241,125.759,29.568z
			 M320.129,48.097c-4.704,0-8.532-3.828-8.532-8.532c0-4.704,3.827-8.532,8.532-8.532c4.705,0,8.532,3.828,8.532,8.532
			C328.661,44.269,324.833,48.097,320.129,48.097z M472.436,311.598c4.705,0,8.532,3.828,8.532,8.532
			c0,4.705-3.828,8.532-8.532,8.532c-4.704,0-8.532-3.828-8.532-8.532C463.903,315.425,467.731,311.598,472.436,311.598z"/>
            </g>
        </g>
        <g>
            <g>
                <path d="M408.914,471.829c-7.319-7.32-18.294-8.781-27.095-4.422l-49.343-49.344c-3.126-3.125-4.847-7.281-4.847-11.701v-22.619
			h16.548c3.345,0,6.671-0.42,9.886-1.247c4.011-1.032,6.426-5.121,5.394-9.133c-1.032-4.011-5.119-6.426-9.133-5.394
			c-1.994,0.513-4.062,0.773-6.147,0.773H167.823c-13.545,0-24.564-11.02-24.564-24.564V167.824c0-2.085,0.26-4.153,0.773-6.146
			c1.033-4.011-1.382-8.1-5.393-9.133c-4.012-1.033-8.101,1.382-9.133,5.393c-0.828,3.214-1.247,6.54-1.247,9.886v16.548H61.864
			c-3.139-9.308-11.946-16.032-22.3-16.032c-12.976,0-23.532,10.556-23.532,23.532c0,12.976,10.557,23.532,23.532,23.532
			c10.354,0,19.16-6.724,22.3-16.032h66.394v17.065H95.677c-4.142,0-7.5,3.358-7.5,7.5c0,4.142,3.358,7.5,7.5,7.5h32.581v17.064H7.5
			c-4.142,0-7.5,3.358-7.5,7.5c0,4.142,3.358,7.5,7.5,7.5h120.758v17.064H95.677c-4.142,0-7.5,3.358-7.5,7.5
			c0,4.142,3.358,7.5,7.5,7.5h32.581v17.065h-22.62c-8.427,0-16.35,3.281-22.308,9.24l-49.326,49.326
			c-3.214-1.601-6.777-2.453-10.473-2.453c-6.286,0-12.195,2.448-16.64,6.892C2.448,380.08,0,385.99,0,392.275
			s2.448,12.195,6.893,16.64c4.444,4.445,10.354,6.892,16.64,6.892c6.286,0,12.195-2.448,16.64-6.892
			c4.445-4.445,6.893-10.354,6.893-16.64c0-3.696-0.852-7.259-2.453-10.473l49.326-49.326c3.125-3.125,7.281-4.847,11.702-4.847
			h22.62v16.548c0,21.816,17.749,39.564,39.564,39.564h16.548v66.394c-9.308,3.139-16.032,11.946-16.032,22.3
			c0,12.976,10.557,23.532,23.532,23.532s23.532-10.557,23.532-23.532c0-10.354-6.724-19.16-16.032-22.3v-66.394h17.064v32.581
			c0,4.142,3.358,7.5,7.5,7.5c4.142,0,7.5-3.358,7.5-7.5v-32.581H248.5v120.76c0,4.142,3.358,7.5,7.5,7.5c4.142,0,7.5-3.358,7.5-7.5
			V383.743h17.064v32.581c0,4.142,3.358,7.5,7.5,7.5c4.142,0,7.5-3.358,7.5-7.5v-32.581h17.064v22.619
			c0,8.427,3.282,16.35,9.241,22.308l49.343,49.343c-4.359,8.801-2.898,19.775,4.422,27.095c4.587,4.588,10.614,6.881,16.64,6.881
			s12.053-2.293,16.64-6.881C418.089,495.933,418.089,481.004,408.914,471.829z M39.564,200.404c-4.705,0-8.532-3.828-8.532-8.532
			c0-4.705,3.828-8.532,8.532-8.532c4.704,0,8.532,3.828,8.532,8.532C48.097,196.577,44.269,200.404,39.564,200.404z
			 M29.565,398.308c-1.612,1.612-3.754,2.499-6.033,2.499s-4.421-0.887-6.033-2.499S15,394.554,15,392.275s0.887-4.421,2.499-6.033
			s3.754-2.499,6.033-2.499s4.421,0.887,6.033,2.499s2.499,3.754,2.499,6.033S31.177,396.697,29.565,398.308z M200.403,472.437
			c0,4.704-3.827,8.532-8.532,8.532c-4.705,0-8.532-3.828-8.532-8.532c0-4.704,3.828-8.532,8.532-8.532
			C196.575,463.905,200.403,467.733,200.403,472.437z M398.308,494.502c-3.327,3.327-8.74,3.326-12.067,0
			c-3.327-3.327-3.327-8.74,0-12.066c1.664-1.663,3.849-2.495,6.034-2.495s4.37,0.832,6.033,2.495
			C401.634,485.762,401.634,491.175,398.308,494.502z"/>
            </g>
        </g>
        <g>
            <g>
                <path d="M335.645,235.962c0-16.04-11.732-29.627-27.793-34.042c0.475-1.961,0.739-3.978,0.739-6.039
			c0-15.186-13.479-27.541-30.045-27.541c-8.974,0-17.035,3.629-22.545,9.365c-5.51-5.736-13.572-9.365-22.545-9.365
			c-16.567,0-30.045,12.355-30.045,27.541c0,2.061,0.264,4.078,0.739,6.039c-16.061,4.414-27.793,18.001-27.793,34.042
			c0,7.839,2.774,15.235,7.899,21.343c-5.011,6.487-7.899,14.362-7.899,22.746c-0.002,12.752,6.812,24.659,18.035,32.045
			c0,0.006,0,0.012,0,0.018c0,17.396,15.501,31.549,34.555,31.549c10.95,0,20.719-4.679,27.054-11.957
			c6.335,7.278,16.104,11.957,27.054,11.957c18.337,0,33.376-13.11,34.482-29.602c11.137-6.462,18.108-17.781,18.108-30.003
			c0-8.99-3.833-17.566-10.43-24.048C331.811,253.528,335.645,244.951,335.645,235.962z M309.101,266.642
			c7.227,3.814,11.541,10.325,11.541,17.416c0,5.287-2.457,10.33-6.607,14.101c-3.943-7.301-10.912-13.113-19.717-15.879
			c-3.95-1.241-8.161,0.956-9.403,4.907c-1.242,3.952,0.956,8.162,4.907,9.403c7.646,2.403,12.784,8.642,12.784,15.525
			c0,9.125-8.772,16.549-19.555,16.549c-10.782,0-19.554-7.424-19.554-16.549v-48.097c0-9.125,8.772-16.548,19.554-16.548
			c4.142,0,7.5-3.358,7.5-7.5c0-4.142-3.358-7.5-7.5-7.5c-7.254,0-13.99,2.056-19.554,5.557v-9.58c0-4.142-3.358-7.5-7.5-7.5
			c-4.142,0-7.5,3.358-7.5,7.5v41.637c-2.524-1.584-5.292-2.895-8.286-3.836c-3.954-1.242-8.162,0.956-9.403,4.906
			c-1.242,3.952,0.955,8.162,4.906,9.404c7.646,2.403,12.783,8.642,12.783,15.524v16.032c0,9.125-8.772,16.549-19.554,16.549
			c-10.783,0-19.555-7.424-19.555-16.549c0-3.911,1.658-7.713,4.668-10.705c2.938-2.92,2.952-7.669,0.032-10.607
			c-2.92-2.938-7.668-2.952-10.606-0.032c-1.797,1.787-3.344,3.739-4.63,5.814c-4.736-4.48-7.501-10.374-7.501-16.535
			c0-11.112,8.721-20.874,21.208-23.739c4.037-0.926,6.559-4.95,5.633-8.987c-0.926-4.038-4.951-6.559-8.987-5.633
			c-5.027,1.153-9.655,3.078-13.759,5.605c-2.661-3.342-4.094-7.256-4.094-11.335c0.003-11.281,10.697-20.465,23.88-20.552
			c0.067,0.002,0.134,0.011,0.2,0.011c1.712,0,3.433-0.583,4.842-1.776c2.875-2.434,3.452-6.564,1.522-9.671
			c-0.057-0.092-0.109-0.186-0.169-0.275c-0.031-0.045-0.068-0.088-0.1-0.133c-0.116-0.163-0.235-0.323-0.364-0.477
			c-0.004-0.005-0.007-0.01-0.011-0.014c-1.251-1.479-2.744-3.927-2.744-7.193c0-6.915,6.75-12.541,15.045-12.541
			c8.295,0,15.045,5.626,15.045,12.541c0,4.142,3.358,7.5,7.5,7.5c4.142,0,7.5-3.358,7.5-7.5c0-6.915,6.75-12.541,15.045-12.541
			c8.295,0,15.045,5.626,15.045,12.541c0,1.848-0.484,3.424-1.125,4.72c-4.266,0.403-8.392,1.434-12.309,3.086
			c-3.817,1.609-5.606,6.008-3.997,9.825c1.609,3.816,6.008,5.607,9.825,3.997c3.242-1.367,6.73-2.07,10.368-2.098
			c0.072,0.002,0.143,0.009,0.215,0.009c0.067,0,0.133-0.009,0.2-0.011c13.183,0.086,23.877,9.271,23.877,20.552
			c0,7.091-4.314,13.601-11.541,17.416c-2.46,1.298-4,3.851-4,6.633C305.101,262.791,306.641,265.344,309.101,266.642z"/>
            </g>
        </g>
    </symbol>

    <symbol id="icon-menu8" viewBox="0 0 512.001 512.001">
        <g>
            <g>
                <path d="M502.001,392.626c5.522,0,10-4.478,10-10v-17.487c-0.001-26.691-15.375-49.846-37.724-61.118
			c11.627-9.844,19.028-24.532,19.028-40.924v-12.464c0-29.567-24.055-53.622-53.622-53.622s-53.622,24.055-53.622,53.622v12.464
			c0,14.249,5.597,27.207,14.694,36.82c-17.581,3.922-34.205,11.406-49.055,22.239l-90.552,66.06
			c-1.872,1.366-3.588,2.901-5.148,4.568c-1.56-1.667-3.277-3.202-5.148-4.568l-90.552-66.06
			c-14.85-10.833-31.474-18.317-49.055-22.239c9.097-9.613,14.695-22.571,14.695-36.82v-12.464
			c0-29.567-24.055-53.622-53.622-53.622s-53.622,24.055-53.622,53.622v12.464c0,16.392,7.401,31.08,19.028,40.924
			C15.374,315.293,0,338.448,0,365.14v136.839c0,5.522,4.478,10,10,10h124.635c5.522,0,10-4.478,10-10v-91.823l65.429,39.45
			c11.547,6.962,25.448,7.159,37.188,0.53c3.316-1.873,6.238-4.187,8.748-6.829c2.51,2.643,5.432,4.957,8.748,6.829
			c5.713,3.227,11.938,4.836,18.153,4.836c6.558,0,13.107-1.792,19.034-5.366l65.43-39.45v91.823c0,5.522,4.478,10,10,10H502
			c5.522,0,10-4.478,10-10v-36.13c0-5.522-4.478-10-10-10c-5.522,0-10,4.478-10,10v26.13H387.365v-92.285
			c0-0.518-0.052-1.023-0.127-1.52l10.87-6.554c4.73-2.852,6.252-8.997,3.4-13.727c-2.853-4.73-9.001-6.255-13.727-3.4
			l-96.173,57.986c-5.287,3.188-11.652,3.278-17.025,0.242c-5.374-3.035-8.583-8.532-8.583-14.705
			c0-5.375,2.593-10.476,6.936-13.644l90.552-66.06c19.365-14.128,42.271-21.595,66.243-21.595h13.847
			c26.7,0,48.423,21.722,48.423,48.422v17.487C492.001,388.148,496.479,392.626,502.001,392.626z M38.695,250.633
			c0-18.539,15.083-33.622,33.622-33.622s33.622,15.083,33.622,33.622v12.464c0,18.539-15.083,33.622-33.622,33.622
			s-33.622-15.083-33.622-33.622V250.633z M237.417,432.721c-5.376,3.035-11.74,2.944-17.026-0.242l-96.172-57.986
			c-4.729-2.854-10.876-1.329-13.727,3.4c-2.852,4.729-1.33,10.875,3.4,13.727l10.858,6.547c-0.076,0.498-0.116,1.008-0.116,1.527
			v92.285H20V365.14c0-26.7,21.723-48.422,48.423-48.422H82.27c23.972,0,46.878,7.467,66.243,21.595l90.552,66.06
			c4.343,3.168,6.936,8.269,6.936,13.644C246,424.189,242.791,429.686,237.417,432.721z M473.305,263.097
			c0,18.539-15.083,33.622-33.622,33.622s-33.622-15.083-33.622-33.622v-12.464c0-18.539,15.083-33.622,33.622-33.622
			s33.622,15.083,33.622,33.622V263.097z"/>
            </g>
        </g>
        <g>
            <g>
                <path d="M509.069,415.94c-1.859-1.859-4.439-2.92-7.069-2.92s-5.21,1.061-7.07,2.92c-1.86,1.87-2.93,4.44-2.93,7.07
			c0,2.64,1.069,5.21,2.93,7.08c1.86,1.86,4.44,2.93,7.07,2.93s5.21-1.069,7.069-2.93c1.86-1.87,2.931-4.44,2.931-7.08
			C512,420.38,510.93,417.8,509.069,415.94z"/>
            </g>
        </g>
        <g>
            <g>
                <path d="M413.044,0.022h-33c-5.522,0-10,4.477-10,10s4.478,10,10,10h8.857l-116.86,116.861L195.568,60.41
			c-1.876-1.875-4.419-2.929-7.071-2.929c-2.652,0-5.195,1.054-7.071,2.929l-71.258,71.258c-3.905,3.906-3.905,10.237,0,14.143
			c3.906,3.906,10.236,3.905,14.143,0l64.187-64.188l76.473,76.473c1.953,1.953,4.512,2.929,7.071,2.929s5.118-0.976,7.071-2.929
			L403.044,34.165v8.857c0,5.523,4.478,10,10,10c5.522,0,10-4.477,10-10v-33C423.044,4.499,418.566,0.022,413.044,0.022z"/>
            </g>
        </g>
        <g>
            <g>
                <path d="M99.069,156.911c-1.859-1.86-4.439-2.93-7.069-2.93s-5.21,1.07-7.07,2.93s-2.93,4.44-2.93,7.07s1.069,5.21,2.93,7.07
			c1.861,1.86,4.44,2.93,7.07,2.93s5.21-1.07,7.069-2.93c1.86-1.86,2.931-4.44,2.931-7.07
			C102,161.341,100.93,158.771,99.069,156.911z"/>
            </g>
        </g>
    </symbol>

    <symbol id="icon-menu7" viewBox="0 0 490 490">
        <g>
            <g>
                <path d="M464.979,334.57H25.024C11.226,334.57,0,323.349,0,309.553V72.987c0-13.795,11.226-25.018,25.024-25.018h439.955
			c13.793,0,25.021,11.223,25.021,25.018v236.566C490,323.349,478.772,334.57,464.979,334.57z M25.024,68.178
			c-2.654,0-4.817,2.157-4.817,4.809v236.566c0,2.652,2.163,4.81,4.817,4.81h439.955c2.653,0,4.813-2.158,4.813-4.81V72.987
			c0-2.652-2.159-4.809-4.813-4.809H25.024z"/>
            </g>
            <g>
                <path d="M192.69,268.058c-3.318-1.815-5.476-5.198-5.476-8.978V123.461c0-3.782,2.114-7.245,5.476-8.98
			c3.36-1.734,7.404-1.445,10.486,0.747l95.358,67.809c2.668,1.896,4.248,4.964,4.248,8.234c0,3.271-1.58,6.339-4.248,8.235
			c0,0-71.522,50.854-95.358,67.807C201.434,268.552,197.679,270.789,192.69,268.058z M207.425,143.045v96.451l67.817-48.225
			L207.425,143.045z"/>
            </g>
            <path d="M479.897,391.927H286.767c-4.485-17.18-20.137-29.894-38.702-29.894c-18.563,0-34.211,12.714-38.697,29.894H10.104
		C4.525,391.927,0,396.452,0,402.031c0,5.581,4.525,10.104,10.104,10.104h199.265c4.486,17.18,20.135,29.896,38.697,29.896
		c18.565,0,34.217-12.717,38.702-29.896h193.129c5.575,0,10.103-4.522,10.103-10.104C490,396.452,485.472,391.927,479.897,391.927z
		 M248.065,421.821c-10.908,0-19.788-8.878-19.788-19.791c0-10.911,8.88-19.788,19.788-19.788c10.913,0,19.791,8.877,19.791,19.788
		C267.856,412.944,258.978,421.821,248.065,421.821z"/>
        </g>
    </symbol>

    <symbol id="icon-menu11" viewBox="0 0 480 480">
        <g>
            <g>
                <path d="M240,0C107.664,0,0,107.664,0,240c0,57.96,20.656,111.184,54.992,152.704c0.088,0.12,0.096,0.272,0.192,0.384
			c24.792,29.896,55.928,52.816,90.624,67.624c0.4,0.168,0.792,0.352,1.192,0.52c2.808,1.184,5.648,2.28,8.496,3.352
			c1.12,0.424,2.24,0.856,3.376,1.264c2.456,0.88,4.928,1.712,7.416,2.512c1.592,0.512,3.184,1.016,4.792,1.496
			c2.2,0.656,4.408,1.288,6.632,1.888c1.952,0.528,3.92,1.016,5.888,1.488c1.992,0.48,3.992,0.96,6,1.384
			c2.24,0.48,4.504,0.904,6.776,1.32c1.824,0.336,3.64,0.688,5.48,0.984c2.52,0.408,5.056,0.728,7.6,1.056
			c1.64,0.208,3.272,0.448,4.92,0.624c2.88,0.304,5.784,0.52,8.696,0.72c1.352,0.096,2.696,0.24,4.056,0.312
			c4.248,0.24,8.544,0.368,12.872,0.368s8.624-0.128,12.888-0.352c1.36-0.072,2.704-0.216,4.056-0.312
			c2.912-0.208,5.816-0.416,8.696-0.72c1.648-0.176,3.28-0.416,4.92-0.624c2.544-0.328,5.08-0.648,7.6-1.056
			c1.832-0.296,3.656-0.648,5.48-0.984c2.264-0.416,4.528-0.84,6.776-1.32c2.008-0.432,4-0.904,6-1.384
			c1.968-0.48,3.936-0.968,5.888-1.488c2.224-0.592,4.432-1.232,6.632-1.888c1.608-0.48,3.2-0.984,4.792-1.496
			c2.488-0.8,4.96-1.632,7.416-2.512c1.128-0.408,2.248-0.84,3.376-1.264c2.856-1.072,5.688-2.176,8.496-3.352
			c0.4-0.168,0.792-0.352,1.192-0.52c34.688-14.808,65.832-37.728,90.624-67.624c0.096-0.112,0.104-0.272,0.192-0.384
			C459.344,351.184,480,297.96,480,240C480,107.664,372.336,0,240,0z M337.256,441.76c-0.12,0.056-0.232,0.12-0.352,0.176
			c-2.856,1.376-5.76,2.672-8.688,3.936c-0.664,0.28-1.32,0.568-1.984,0.848c-2.56,1.072-5.152,2.088-7.76,3.064
			c-1.088,0.408-2.176,0.808-3.272,1.192c-2.312,0.824-4.632,1.616-6.976,2.368c-1.456,0.464-2.92,0.904-4.384,1.336
			c-2.08,0.624-4.168,1.224-6.28,1.784c-1.776,0.472-3.568,0.904-5.36,1.328c-1.88,0.448-3.752,0.904-5.648,1.304
			c-2.072,0.44-4.16,0.816-6.24,1.192c-1.688,0.312-3.368,0.64-5.072,0.912c-2.344,0.368-4.712,0.664-7.072,0.96
			c-1.496,0.192-2.984,0.416-4.496,0.576c-2.696,0.288-5.416,0.472-8.128,0.664c-1.208,0.08-2.408,0.216-3.632,0.28
			c-3.96,0.208-7.928,0.32-11.912,0.32s-7.952-0.112-11.904-0.32c-1.216-0.064-2.416-0.192-3.632-0.28
			c-2.72-0.184-5.432-0.376-8.128-0.664c-1.512-0.16-3-0.384-4.496-0.576c-2.36-0.296-4.728-0.592-7.072-0.96
			c-1.704-0.272-3.384-0.6-5.072-0.912c-2.088-0.376-4.176-0.76-6.24-1.192c-1.896-0.4-3.776-0.856-5.648-1.304
			c-1.792-0.432-3.584-0.856-5.36-1.328c-2.104-0.56-4.2-1.168-6.28-1.784c-1.464-0.432-2.928-0.872-4.384-1.336
			c-2.344-0.752-4.672-1.544-6.976-2.368c-1.096-0.392-2.184-0.792-3.272-1.192c-2.608-0.976-5.2-1.992-7.76-3.064
			c-0.664-0.272-1.312-0.56-1.976-0.84c-2.928-1.256-5.832-2.56-8.696-3.936c-0.12-0.056-0.232-0.112-0.352-0.176
			c-27.912-13.504-52.568-32.672-72.576-55.952c15.464-56.944,59.24-102.848,115.56-121.112c1.112,0.68,2.272,1.288,3.416,1.928
			c0.672,0.376,1.336,0.776,2.016,1.136c2.384,1.264,4.8,2.448,7.272,3.512c1.896,0.832,3.856,1.536,5.808,2.256
			c0.384,0.136,0.768,0.288,1.152,0.424c10.848,3.84,22.456,6.04,34.6,6.04s23.752-2.2,34.592-6.04
			c0.384-0.136,0.768-0.288,1.152-0.424c1.952-0.72,3.912-1.424,5.808-2.256c2.472-1.064,4.888-2.248,7.272-3.512
			c0.68-0.368,1.344-0.76,2.016-1.136c1.144-0.64,2.312-1.248,3.432-1.936c56.32,18.272,100.088,64.176,115.56,121.112
			C389.824,409.08,365.168,428.248,337.256,441.76z M152,176c0-48.52,39.48-88,88-88s88,39.48,88,88
			c0,30.864-16.008,58.024-40.128,73.736c-3.152,2.048-6.432,3.88-9.8,5.48c-0.4,0.192-0.792,0.392-1.192,0.576
			c-23.168,10.536-50.592,10.536-73.76,0c-0.4-0.184-0.8-0.384-1.192-0.576c-3.376-1.6-6.648-3.432-9.8-5.48
			C168.008,234.024,152,206.864,152,176z M421.832,370.584c-18.136-53.552-59.512-96.832-112.376-117.392
			C330.6,234.144,344,206.64,344,176c0-57.344-46.656-104-104-104s-104,46.656-104,104c0,30.64,13.4,58.144,34.552,77.192
			c-52.864,20.568-94.24,63.84-112.376,117.392C31.672,333.792,16,288.704,16,240C16,116.488,116.488,16,240,16s224,100.488,224,224
			C464,288.704,448.328,333.792,421.832,370.584z"/>
            </g>
        </g>
    </symbol>

    <symbol id="support" viewBox="0 0 512 512">
        <g>
            <g>
                <path d="M366,396c-5.52,0-10,4.48-10,10c0,5.52,4.48,10,10,10c5.52,0,10-4.48,10-10C376,400.48,371.52,396,366,396z"/>
            </g>
        </g>
        <g>
            <g>
                <path d="M390.622,363.663l-47.53-15.84l-17.063-34.127c15.372-15.646,26.045-36.348,29.644-57.941L357.801,243H376
			c16.542,0,30-13.458,30-30v-63C406,67.29,338.71,0,256,0c-82.922,0-150,67.097-150,150v63c0,13.036,8.361,24.152,20,28.28V253
			c0,16.542,13.458,30,30,30h8.782c4.335,9.417,9.946,18.139,16.774,25.974c1.416,1.628,2.893,3.206,4.406,4.741l-17.054,34.108
			l-47.531,15.841C66.112,382.092,26,440.271,26,502c0,5.523,4.477,10,10,10h440c5.522,0,10-4.477,10-10
			C486,440.271,445.889,382.092,390.622,363.663z M386,213c0,5.514-4.486,10-10,10h-15.262c2.542-19.69,4.236-40.643,4.917-61.28
			c0.02-0.582,0.036-1.148,0.054-1.72H386V213z M136,223c-5.514,0-10-4.486-10-10v-53h20.298c0.033,1.043,0.068,2.091,0.107,3.146
			c0.001,0.036,0.003,0.071,0.004,0.107c0,0.003,0,0.006,0,0.009c0.7,20.072,2.372,40.481,4.856,59.737H136V223z M156,263
			c-5.514,0-10-4.486-10-10v-10h8.198l2.128,12.759c0.406,2.425,0.905,4.841,1.482,7.241H156z M146.017,140H126.38
			C131.445,72.979,187.377,20,256,20c68.318,0,124.496,52.972,129.619,120h-19.635c-0.72-55.227-45.693-100-101.033-100h-17.9
			C191.712,40,146.736,84.773,146.017,140z M247.05,60h17.9c44.809,0,81.076,36.651,81.05,81.41c0,3.147-0.025,5.887-0.078,8.38
			c0,0.032-0.001,0.065-0.001,0.098l-12.508-1.787c-33.98-4.852-66.064-20.894-90.342-45.172C241.195,101.054,238.652,100,236,100
			c-26.856,0-52.564,12.236-69.558,32.908C170.63,92.189,205.053,60,247.05,60z M178.54,263c-5.006-16.653-10.734-65.653-12-97.053
			l13.459-17.946c12.361-16.476,31.592-26.713,52.049-27.888c26.917,25.616,61.739,42.532,98.537,47.786l14.722,2.104
			c-0.984,20.885-2.995,41.843-5.876,61.118c-0.001,0.006-0.002,0.013-0.003,0.02c-0.916,6.197-1.638,10.185-3.482,21.324
			c-5.296,31.765-28.998,60.49-60.287,68.313c-12.877,3.215-26.443,3.214-39.313,0c-19.537-4.884-37.451-18.402-49.012-37.778
			h20.386c4.128,11.639,15.243,20,28.28,20h20c16.575,0,30-13.424,30-30c0-16.542-13.458-30-30-30h-20
			c-13.327,0-24.278,8.608-28.297,20H178.54z M235.159,341.016c6.859,1.445,13.852,2.184,20.841,2.184
			c5.471,0,10.943-0.458,16.353-1.346l-17.67,18.687L235.159,341.016z M240.935,375.079l-31.718,33.542
			c-8.732-16.714-16.235-34.109-22.389-51.917l11.911-23.822L240.935,375.079z M311.566,329.494l13.604,27.209
			c-6.164,17.838-13.669,35.239-22.392,51.933l-33.948-33.948L311.566,329.494z M226,273c0-5.521,4.478-10,10-10h20
			c5.514,0,10,4.486,10,10c0,5.522-4.479,10-10,10h-20C230.486,283,226,278.514,226,273z M46.4,492
			c3.963-49.539,36.932-94.567,81.302-109.363l42.094-14.028c7.712,21.325,17.266,42.052,28.463,61.74
			c0.019,0.034,0.037,0.068,0.056,0.101c0,0.001,0.001,0.001,0.001,0.002c8.181,14.389,17.389,28.45,27.372,41.799L237.99,492H46.4z
			 M256,483.086l-13.562-21.773c-0.152-0.244-0.314-0.481-0.486-0.711c-8.098-10.802-15.652-22.099-22.532-33.662l35.663-37.714
			l37.578,37.578c-6.926,11.647-14.506,22.991-22.611,33.796C269.56,461.253,270.255,460.224,256,483.086z M274.01,492
			l12.301-19.748c10.027-13.4,19.301-27.574,27.564-42.132c0.05-0.088,0.097-0.178,0.147-0.266c0.006-0.011,0.012-0.021,0.018-0.032
			c11.055-19.5,20.509-40.047,28.164-61.213l42.093,14.028c44.371,14.796,77.34,59.824,81.303,109.363H274.01z"/>
            </g>
        </g>
        <g>
            <g>
                <path d="M435.546,451.531c-6.683-13.377-16.472-25.261-28.309-34.367c-4.378-3.369-10.656-2.55-14.023,1.828
			c-3.368,4.378-2.549,10.656,1.828,14.024c9.454,7.273,17.272,16.766,22.611,27.453c2.473,4.949,8.483,6.941,13.415,4.477
			C436.008,462.478,438.013,456.472,435.546,451.531z"/>
            </g>
        </g>
    </symbol>

    <symbol id="notification" viewBox="0 0 512 512">
        <g>
            <g>
                <path d="M467.819,431.851l-36.651-61.056c-16.896-28.181-25.835-60.437-25.835-93.312V224
			c0-82.325-67.008-149.333-149.333-149.333S106.667,141.675,106.667,224v53.483c0,32.875-8.939,65.131-25.835,93.312
			l-36.651,61.056c-1.984,3.285-2.027,7.403-0.149,10.731c1.899,3.349,5.461,5.419,9.301,5.419h405.333
			c3.84,0,7.403-2.069,9.301-5.419C469.845,439.253,469.803,435.136,467.819,431.851z M72.171,426.667l26.944-44.907
			C118.016,350.272,128,314.219,128,277.483V224c0-70.592,57.408-128,128-128s128,57.408,128,128v53.483
			c0,36.736,9.984,72.789,28.864,104.277l26.965,44.907H72.171z"/>
            </g>
        </g>
        <g>
            <g>
                <path d="M256,0c-23.531,0-42.667,19.136-42.667,42.667v42.667C213.333,91.221,218.112,96,224,96s10.667-4.779,10.667-10.667
			V42.667c0-11.776,9.557-21.333,21.333-21.333s21.333,9.557,21.333,21.333v42.667C277.333,91.221,282.112,96,288,96
			s10.667-4.779,10.667-10.667V42.667C298.667,19.136,279.531,0,256,0z"/>
            </g>
        </g>
        <g>
            <g>
                <path d="M302.165,431.936c-3.008-5.077-9.515-6.741-14.613-3.819c-5.099,2.987-6.805,9.536-3.819,14.613
			c2.773,4.715,4.288,10.368,4.288,15.936c0,17.643-14.357,32-32,32c-17.643,0-32-14.357-32-32c0-5.568,1.515-11.221,4.288-15.936
			c2.965-5.099,1.259-11.627-3.819-14.613c-5.141-2.923-11.627-1.259-14.613,3.819c-4.715,8.064-7.211,17.301-7.211,26.731
			C202.667,488.085,226.581,512,256,512s53.333-23.915,53.376-53.333C309.376,449.237,306.88,440,302.165,431.936z"/>
            </g>
        </g>
    </symbol>

    <symbol id="mail" viewBox="0 0 512 512">
        <g>
            <g>
                <path d="M485.743,85.333H26.257C11.815,85.333,0,97.148,0,111.589V400.41c0,14.44,11.815,26.257,26.257,26.257h459.487
			c14.44,0,26.257-11.815,26.257-26.257V111.589C512,97.148,500.185,85.333,485.743,85.333z M475.89,105.024L271.104,258.626
			c-3.682,2.802-9.334,4.555-15.105,4.529c-5.77,0.026-11.421-1.727-15.104-4.529L36.109,105.024H475.89z M366.5,268.761
			l111.59,137.847c0.112,0.138,0.249,0.243,0.368,0.368H33.542c0.118-0.131,0.256-0.23,0.368-0.368L145.5,268.761
			c3.419-4.227,2.771-10.424-1.464-13.851c-4.227-3.419-10.424-2.771-13.844,1.457l-110.5,136.501V117.332l209.394,157.046
			c7.871,5.862,17.447,8.442,26.912,8.468c9.452-0.02,19.036-2.6,26.912-8.468l209.394-157.046v275.534L381.807,256.367
			c-3.42-4.227-9.623-4.877-13.844-1.457C363.729,258.329,363.079,264.534,366.5,268.761z"/>
            </g>
        </g>
    </symbol>

    <symbol id="calendar" viewBox="0 0 383.9 383.9">
        <g>
            <g>
                <path d="M344.1,50H320V30.9c0-5.5-4.5-10-10-10s-10,4.5-10,10V50h-98V30.9c0-5.5-4.5-10-10-10s-10,4.5-10,10V50H83V30.9
			c0-5.5-4.5-10-10-10s-10,4.5-10,10V50H39.9C17.9,50,0,68.5,0,90.5V323c0,22.1,17.8,40,39.9,40H344c22.1,0,39.9-17.9,39.9-39.9
			V90.5C384,68.5,366.1,50,344.1,50z M364,323c0,11-8.8,19.9-19.8,20h-0.1H39.9c-11,0-19.9-8.9-19.9-19.9V323V90.5
			C20,79.4,28.9,70,39.9,70H63v14.5c0,5.5,4.5,10,10,10s10-4.5,10-10V70h99v14.5c0,5.5,4.5,10,10,10s10-4.5,10-10V70h98v14.5
			c0,5.5,4.5,10,10,10s10-4.5,10-10V70h24.1c11.1,0,19.9,9.5,19.9,20.5V323z"/>
            </g>
        </g>
        <g>
            <g>
                <path d="M165.7,135h-17.5c-5.5,0-10,4.5-10,10s4.5,10,10,10h17.5c5.5,0,10-4.5,10-10S171.2,135,165.7,135z"/>
            </g>
        </g>
        <g>
            <g>
                <path d="M235.3,135h-17.5c-5.5,0-10,4.5-10,10s4.5,10,10,10h17.5c5.5,0,10-4.5,10-10S240.9,135,235.3,135z"/>
            </g>
        </g>
        <g>
            <g>
                <path d="M305.5,135H288c-5.5,0-10,4.5-10,10s4.5,10,10,10h17.5c5.5,0,10-4.5,10-10S311,135,305.5,135z"/>
            </g>
        </g>
        <g>
            <g>
                <path d="M165.7,204h-17.5c-5.5,0-10,4.5-10,10s4.5,10,10,10h17.5c5.5,0,10-4.5,10-10S171.2,204,165.7,204z"/>
            </g>
        </g>
        <g>
            <g>
                <path d="M95.6,204H78c-5.5,0-10,4.5-10,10s4.5,10,10,10h17.5c5.5,0,10-4.5,10-10S101.1,204,95.6,204z"/>
            </g>
        </g>
        <g>
            <g>
                <path d="M235.3,204h-17.5c-5.5,0-10,4.5-10,10s4.5,10,10,10h17.5c5.5,0,10-4.5,10-10S240.9,204,235.3,204z"/>
            </g>
        </g>
        <g>
            <g>
                <path d="M305.5,204H288c-5.5,0-10,4.5-10,10s4.5,10,10,10h17.5c5.5,0,10-4.5,10-10S311,204,305.5,204z"/>
            </g>
        </g>
        <g>
            <g>
                <path d="M165.7,272h-17.5c-5.5,0-10,4.5-10,10s4.5,10,10,10h17.5c5.5,0,10-4.5,10-10S171.2,272,165.7,272z"/>
            </g>
        </g>
        <g>
            <g>
                <path d="M95.6,272H78c-5.5,0-10,4.5-10,10s4.5,10,10,10h17.5c5.5,0,10-4.5,10-10S101.1,272,95.6,272z"/>
            </g>
        </g>
        <g>
            <g>
                <path d="M235.3,272h-17.5c-5.5,0-10,4.5-10,10s4.5,10,10,10h17.5c5.5,0,10-4.5,10-10S240.9,272,235.3,272z"/>
            </g>
        </g>
    </symbol>

    <symbol id="menu" viewBox="0 0 297.001 297.001">
        <g>
            <g>
                <g>
                    <path d="M107.883,0h-85.27C10.144,0,0.001,10.143,0.001,22.612v85.27c0,12.469,10.143,22.612,22.612,22.612h85.27
				c12.469,0,22.612-10.143,22.612-22.612v-85.27C130.493,10.143,120.352,0,107.883,0z"/>
                    <path d="M274.388,0h-85.27c-12.469,0-22.612,10.143-22.612,22.612v85.27c0,12.469,10.143,22.612,22.612,22.612h85.27
				c12.469,0,22.612-10.143,22.612-22.612v-85.27C297,10.143,286.857,0,274.388,0z"/>
                    <path d="M107.883,166.507h-85.27c-12.469,0-22.612,10.142-22.612,22.611v85.27C0.001,286.857,10.144,297,22.613,297h85.27
				c12.469,0,22.612-10.143,22.612-22.612v-85.27C130.493,176.649,120.352,166.507,107.883,166.507z"/>
                    <path d="M274.388,166.507h-85.27c-12.469,0-22.612,10.143-22.612,22.612v85.27c0,12.469,10.143,22.612,22.612,22.612h85.27
				C286.857,297,297,286.857,297,274.388v-85.27C297,176.649,286.857,166.507,274.388,166.507z"/>
                </g>
            </g>
        </g>
    </symbol>

</svg>